<svg xmlns="http://www.w3.org/2000/svg" viewBox="0 0 373.01 229.88"><defs><style>.cls-1{fill:#fff;}.cls-2{fill:#093844;}.cls-3{fill:#52616d;}.cls-4{fill:#f1a20d;}.cls-5{fill:#a1c481;}.cls-6{fill:#8ba69d;}.cls-7{fill:#e65848;}</style></defs><title>App_dev</title><g id="Layer_2" data-name="Layer 2"><g id="Layer_1-2" data-name="Layer 1"><g id="Layer_2-2" data-name="Layer 2"><g id="Layer_1-2-2" data-name="Layer 1-2"><path class="cls-1" d="M187,73.32a2.46,2.46,0,0,1-2.46-2.46h0v-12a2.46,2.46,0,1,1,4.92,0h0v12A2.46,2.46,0,0,1,187,73.32Z"/><path class="cls-1" d="M245.61,74.79a2.46,2.46,0,0,1-1.74-4.2L257.6,56.86a2.46,2.46,0,1,1,3.48,3.48L247.35,74.07A2.47,2.47,0,0,1,245.61,74.79Z"/><path class="cls-1" d="M126.33,74.79a2.47,2.47,0,0,1-1.74-.72L110.86,60.34a2.46,2.46,0,1,1,3.48-3.48l13.73,13.73a2.46,2.46,0,0,1-1.74,4.2Z"/><rect class="cls-1" x="125.21" y="70.86" width="121.97" height="157.5"/><path class="cls-2" d="M123.69,228.36V70.86a1.53,1.53,0,0,1,1.52-1.53h122a1.53,1.53,0,0,1,1.52,1.53v157.5a1.52,1.52,0,0,1-1.52,1.52h-122a1.52,1.52,0,0,1-1.52-1.52Zm3-156V226.83h119V72.38Z"/><rect class="cls-3" x="135.34" y="80.99" width="101.71" height="132.67"/><path class="cls-2" d="M133.82,213.66V81a1.52,1.52,0,0,1,1.52-1.52H237A1.52,1.52,0,0,1,238.57,81V213.66a1.52,1.52,0,0,1-1.52,1.52H135.34a1.52,1.52,0,0,1-1.52-1.52Zm3-131.15V212.14h98.67V82.51Z"/><path class="cls-1" d="M186.19,223.75a3,3,0,1,0-.05,0Z"/><path class="cls-2" d="M186.19,225.39a4.69,4.69,0,1,1,4.69-4.69,4.69,4.69,0,0,1-4.69,4.69Zm0-6.09a1.41,1.41,0,1,0,1.41,1.41h0a1.4,1.4,0,0,0-1.4-1.4Z"/><rect class="cls-1" x="145.43" y="91.15" width="81.53" height="107.72"/><rect class="cls-4" x="156.51" y="177.46" width="59.37" height="13.19"/><path class="cls-2" d="M215.88,192.29H156.51a1.63,1.63,0,0,1-1.64-1.64V177.46a1.63,1.63,0,0,1,1.64-1.64h59.37a1.63,1.63,0,0,1,1.64,1.64v13.19A1.63,1.63,0,0,1,215.88,192.29ZM158.15,189h56.09V179.1H158.15Z"/><rect class="cls-1" x="159.77" y="112.18" width="52.84" height="52.84"/><polygon class="cls-5" points="182.07 130.58 168.19 116.7 155.22 129.67 169.1 143.54 182.07 156.51 195.04 143.54 217.17 121.42 204.2 108.45 182.07 130.58"/><path class="cls-2" d="M182.07,158.16h0a1.64,1.64,0,0,1-1.16-.48l-26.85-26.85a1.64,1.64,0,0,1,0-2.32h0l13-13a1.63,1.63,0,0,1,1.16-.48h0a1.63,1.63,0,0,1,1.16.48l12.72,12.72,21-21a1.68,1.68,0,0,1,2.32,0l13,13a1.64,1.64,0,0,1,0,2.32l-35.1,35.1A1.68,1.68,0,0,1,182.07,158.16Zm-24.53-28.49,24.53,24.52,32.78-32.77L204.2,110.77l-21,21a1.63,1.63,0,0,1-1.16.48h0a1.63,1.63,0,0,1-1.16-.48L168.19,119Z"/><path class="cls-1" d="M342.32,217.71A30.66,30.66,0,1,1,373,187a30.66,30.66,0,0,1-30.69,30.7Zm0-56.39a25.74,25.74,0,1,0,25.74,25.74V187A25.76,25.76,0,0,0,342.32,161.32Z"/><path class="cls-6" d="M355.86,179.82a15.68,15.68,0,0,1-13.54-7.24,15.67,15.67,0,0,1-13.53,7.24,18.3,18.3,0,0,1-3.61-.39,18.27,18.27,0,0,0-.28,3.22c0,10,17.42,23.48,17.42,23.48s17.42-13.47,17.42-23.48a18.27,18.27,0,0,0-.28-3.22A18.12,18.12,0,0,1,355.86,179.82Z"/><path class="cls-2" d="M342.32,207.77a1.66,1.66,0,0,1-1-.35c-.74-.57-18.06-14.08-18.06-24.77a20.6,20.6,0,0,1,.31-3.5,1.61,1.61,0,0,1,.69-1.08,1.67,1.67,0,0,1,1.27-.25,14.87,14.87,0,0,0,3.26.36,14,14,0,0,0,12.13-6.44,1.61,1.61,0,0,1,1.4-.8h0a1.62,1.62,0,0,1,1.41.8,14,14,0,0,0,12.13,6.44,14.87,14.87,0,0,0,3.26-.36,1.65,1.65,0,0,1,2,1.23s0,.07,0,.1a20.59,20.59,0,0,1,.3,3.5c0,10.69-17.32,24.2-18.05,24.77A1.66,1.66,0,0,1,342.32,207.77ZM326.6,181.32c0,.45-.06.89-.06,1.33,0,7,10.59,17.14,15.78,21.38,5.2-4.24,15.78-14.33,15.78-21.38v-1.33a17.68,17.68,0,0,1-15.73-5.92A17.62,17.62,0,0,1,326.6,181.32Z"/><path class="cls-1" d="M342.32,145.88A30.66,30.66,0,1,1,373,115.23,30.66,30.66,0,0,1,342.32,145.88Zm0-56.39a25.74,25.74,0,1,0,25.74,25.74h0A25.76,25.76,0,0,0,342.32,89.49Z"/><rect class="cls-4" x="329.25" y="107.11" width="24.83" height="15.48" transform="translate(18.86 275.24) rotate(-45)"/><path class="cls-2" d="M338.36,130.75a1.63,1.63,0,0,1-1.16-.48l-10.95-10.94a1.64,1.64,0,0,1,0-2.32h0l17.56-17.56a1.64,1.64,0,0,1,2.32,0h0l10.94,11a1.64,1.64,0,0,1,0,2.32h0l-17.55,17.55A1.66,1.66,0,0,1,338.36,130.75Zm-8.63-12.58,8.63,8.62,15.23-15.23L345,102.93Z"/><rect class="cls-7" x="349.27" y="95.52" width="8" height="15.48" transform="translate(30.46 280.04) rotate(-45)"/><path class="cls-2" d="M355.91,113.2a1.73,1.73,0,0,1-1.16-.48l-10.94-11a1.64,1.64,0,0,1,0-2.32h0l5.66-5.66a1.64,1.64,0,0,1,2.32,0h0l10.94,11a1.64,1.64,0,0,1,0,2.32h0l-5.66,5.66A1.66,1.66,0,0,1,355.91,113.2Zm-8.62-12.59,8.62,8.63,3.34-3.34-8.62-8.63Z"/><polygon class="cls-1" points="327.41 118.17 326.12 130.4 338.36 129.11 327.41 118.17"/><path class="cls-2" d="M326.12,132a1.64,1.64,0,0,1-1.63-1.81L325.78,118a1.64,1.64,0,0,1,2.79-1L339.52,128a1.66,1.66,0,0,1,.38,1.71,1.63,1.63,0,0,1-1.37,1.08L326.29,132Zm2.56-10.28-.72,6.8,6.81-.72Z"/><path class="cls-1" d="M276.85,67.47a30.66,30.66,0,1,1,30.66-30.66A30.66,30.66,0,0,1,276.85,67.47Zm0-56.39a25.74,25.74,0,1,0,25.73,25.75v0A25.77,25.77,0,0,0,276.85,11.08Z"/><rect class="cls-5" x="257.55" y="25.05" width="38.6" height="23.52"/><path class="cls-2" d="M296.15,49.93h-38.6a1.34,1.34,0,0,1-1.35-1.35h0V25a1.34,1.34,0,0,1,1.35-1.35h38.6A1.34,1.34,0,0,1,297.5,25V48.58A1.34,1.34,0,0,1,296.15,49.93ZM258.9,47.22h35.9V26.4H258.9Z"/><path class="cls-2" d="M281.41,39.51a5,5,0,0,1-5,5H276c-2.43,0-5.12-1.94-5.12-4.52a1.28,1.28,0,0,1,1.26-1.26,1.33,1.33,0,0,1,1.3,1.1,2.48,2.48,0,0,0,1.9,2V37.3c-2.21-.79-3.31-2.21-3.31-4.22,0-2.21,2-4,4.61-4,1.22,0,3.2.69,3.2,2a1.25,1.25,0,0,1-1.26,1.26h0c-.55,0-1.06-.47-1.65-.6V35a9.64,9.64,0,0,1,1.61.64C280.28,36.57,281.41,37.5,281.41,39.51Zm-6-5V32a1.22,1.22,0,0,0-.73,1.1,1.44,1.44,0,0,0,.7,1.41ZM277,41.84a2.14,2.14,0,0,0,1.68-2.14c0-1-.85-1.53-1.68-1.88Z"/><path class="cls-1" d="M30.67,145.88a30.66,30.66,0,1,1,30.65-30.67v0A30.69,30.69,0,0,1,30.67,145.88Zm0-56.39A25.74,25.74,0,1,0,56.4,115.24h0A25.76,25.76,0,0,0,30.67,89.49Z"/><polygon class="cls-4" points="30.67 95.58 36.51 106.89 49.06 108.95 40.12 117.99 42.03 130.57 30.67 124.86 19.3 130.57 21.21 117.99 12.27 108.95 24.83 106.89 30.67 95.58"/><path class="cls-2" d="M42,132.21a1.7,1.7,0,0,1-.73-.17L30.65,126.7,20,132a1.64,1.64,0,0,1-2.35-1.72l1.79-11.76-8.36-8.46a1.62,1.62,0,0,1-.4-1.66A1.65,1.65,0,0,1,12,107.3l11.74-1.93,5.48-10.54a1.63,1.63,0,0,1,1.46-.89h0a1.62,1.62,0,0,1,1.45.89l5.47,10.57,11.74,1.93a1.64,1.64,0,0,1,1.35,1.89,1.59,1.59,0,0,1-.45.88l-8.37,8.46,1.8,11.76A1.67,1.67,0,0,1,43,131.9,1.76,1.76,0,0,1,42,132.21ZM15.67,110l6.71,6.79a1.62,1.62,0,0,1,.46,1.4l-1.44,9.44,8.53-4.29a1.65,1.65,0,0,1,1.47,0l8.53,4.29L38.5,118.2a1.65,1.65,0,0,1,.45-1.4L45.66,110l-9.42-1.55a1.63,1.63,0,0,1-1.19-.86l-4.38-8.48-4.39,8.48a1.63,1.63,0,0,1-1.19.86Z"/><path class="cls-1" d="M187,61.32a30.66,30.66,0,1,1,30.66-30.66h0A30.69,30.69,0,0,1,187,61.32Zm0-56.39a25.74,25.74,0,1,0,25.74,25.74A25.73,25.73,0,0,0,187,4.93Z"/><path class="cls-7" d="M195.82,16.83a10.09,10.09,0,0,0-8.72,5,10.1,10.1,0,0,0-18.82,5.1c0,5.58,15.36,21.58,18.82,21.58s18.83-16,18.83-21.58A10.11,10.11,0,0,0,195.82,16.83Z"/><path class="cls-2" d="M187.1,50.16c-4.6,0-20.46-16.76-20.46-23.22a11.73,11.73,0,0,1,20.46-7.86,11.74,11.74,0,0,1,20.47,7.86C207.57,33.16,191.54,50.16,187.1,50.16Zm-8.71-31.69a8.48,8.48,0,0,0-8.46,8.47c0,4.81,14.2,19.42,17.17,19.94,3-.52,17.19-15.13,17.19-19.94a8.46,8.46,0,0,0-15.77-4.27,1.71,1.71,0,0,1-2.38.45,1.75,1.75,0,0,1-.45-.45,8.51,8.51,0,0,0-7.3-4.2Z"/><path class="cls-1" d="M94.3,67.47A30.66,30.66,0,1,1,125,36.8h0A30.69,30.69,0,0,1,94.3,67.47Zm0-56.39A25.74,25.74,0,1,0,120,36.85v0A25.76,25.76,0,0,0,94.3,11.08Z"/><path class="cls-6" d="M93.92,19.42,87.59,30.68a8.7,8.7,0,0,0,.87,1.51l.66,4.12c-6,.32-10.78,3.85-10.78,8.17,0,4.53,5.23,8.2,11.68,8.2s11.67-3.67,11.67-8.2c0-3.18-2.59-5.94-6.36-7.3l-.41-2.55c3.86-.14,8-1.11,10.22,3.81,2.53-4.51,3.79-6.76,6.33-11.26C107.54,18.57,97.84,28,93.92,19.42Z"/><path class="cls-2" d="M90,54.32c-7.35,0-13.32-4.42-13.32-9.84,0-4.76,4.41-8.68,10.53-9.62l-.33-2a9.88,9.88,0,0,1-.81-1.46,1.64,1.64,0,0,1,.07-1.48l6.33-11.26A1.64,1.64,0,0,1,94.71,18a1.62,1.62,0,0,1,.69.75c1.15,2.52,2.73,3,5.07,3a16.71,16.71,0,0,0,2.11-.09,19.4,19.4,0,0,1,2.31-.09c2.71,0,6.07.56,8.06,4.93a1.64,1.64,0,0,1-.06,1.48l-6.34,11.26a1.64,1.64,0,0,1-2.23.63,1.62,1.62,0,0,1-.69-.75c-1.15-2.52-2.73-3-5.07-3H97.13c3.85,1.79,6.19,4.89,6.19,8.33C103.33,49.9,97.36,54.32,90,54.32Zm-.56-23.61c.11.18.22.35.34.51a1.65,1.65,0,0,1,.29.71L90.74,36a1.62,1.62,0,0,1-.34,1.29,1.69,1.69,0,0,1-1.19.61c-5.2.32-9.2,3.18-9.2,6.57S84.58,51,90,51s10-3,10-6.56c0-2.38-2-4.58-5.28-5.75a1.64,1.64,0,0,1-1.06-1.29l-.41-2.55A1.66,1.66,0,0,1,94.82,33a9.38,9.38,0,0,0,1.4-.07c.77,0,1.55-.1,2.31-.1A8.16,8.16,0,0,1,105,35.27l4.58-8.13c-1.12-1.9-2.61-2.29-4.71-2.29a16.71,16.71,0,0,0-2.11.09,19.4,19.4,0,0,1-2.31.09A8.15,8.15,0,0,1,94,22.59Z"/><path class="cls-1" d="M30.67,217.71A30.66,30.66,0,1,1,61.32,187,30.66,30.66,0,0,1,30.67,217.71Zm0-56.39A25.74,25.74,0,1,0,56.4,187.07V187A25.76,25.76,0,0,0,30.67,161.32Z"/><path class="cls-7" d="M23.65,199.06a3,3,0,1,1,0,6h-3a3,3,0,0,1-2.12-.88,11.86,11.86,0,0,1-2.06-3,18.3,18.3,0,0,1-1.85-8.09c0-.62-1.44-2.37-3.14-3.55l-.83-.83a2.78,2.78,0,0,1-.51-1.65,3,3,0,0,1,1.34-2.52A10.52,10.52,0,0,0,13.34,183a3.84,3.84,0,0,0,1.29-2,18.3,18.3,0,0,1,1.85-8.09,12.4,12.4,0,0,1,2.06-3,3,3,0,0,1,2.12-.88h3a3,3,0,0,1,0,6h-1.5a11.65,11.65,0,0,0-1.49,6,9,9,0,0,1-2.89,6,9.08,9.08,0,0,1,2.89,6,11.65,11.65,0,0,0,1.49,6Z"/><path class="cls-2" d="M23.65,206.73h-3a4.64,4.64,0,0,1-3.28-1.36A13.86,13.86,0,0,1,15,201.91a19.77,19.77,0,0,1-2-8.61,9.72,9.72,0,0,0-2.44-2.43,1.24,1.24,0,0,1-.22-.18l-.83-.83a1.18,1.18,0,0,1-.18-.21,4.56,4.56,0,0,1-.82-2.6,4.64,4.64,0,0,1,2.09-3.9,9.64,9.64,0,0,0,1.56-1.29,4.62,4.62,0,0,0,.84-1.07,19.65,19.65,0,0,1,2-8.59,13.91,13.91,0,0,1,2.36-3.47,4.73,4.73,0,0,1,3.28-1.36h3a4.66,4.66,0,1,1,.43,9.31h-.93A10.77,10.77,0,0,0,22.3,181,9.82,9.82,0,0,1,20,187a9.82,9.82,0,0,1,2.35,6,10.44,10.44,0,0,0,.85,4.34h.5a4.66,4.66,0,0,1,.43,9.31,3.09,3.09,0,0,1-.43,0Zm-11.1-18.46c1.14.83,3.72,3.06,3.72,4.81A16.74,16.74,0,0,0,18,200.44,10.43,10.43,0,0,0,19.7,203a1.4,1.4,0,0,0,1,.4h3a1.38,1.38,0,0,0,.23-2.75H22.2a1.64,1.64,0,0,1-1.4-.79A13.27,13.27,0,0,1,19,193.08a7.54,7.54,0,0,0-2.43-4.89,1.65,1.65,0,0,1,0-2.28A7.57,7.57,0,0,0,19,181a13.22,13.22,0,0,1,1.73-6.82,1.61,1.61,0,0,1,1.4-.8h1.5a1.38,1.38,0,0,0,.23-2.75H20.64a1.35,1.35,0,0,0-.95.4,10.07,10.07,0,0,0-1.76,2.61A16.89,16.89,0,0,0,16.27,181a5.08,5.08,0,0,1-1.77,3.12,11.71,11.71,0,0,1-2.14,1.77,1.35,1.35,0,0,0-.57,1.14,1.31,1.31,0,0,0,.15.61Z"/><path class="cls-7" d="M37.63,175a3,3,0,1,1,0-6h3a3,3,0,0,1,2.12.88,14.66,14.66,0,0,1,2.06,3,18.39,18.39,0,0,1,1.8,8.09c0,.62,1.5,2.37,3.2,3.56l.82.82a2.86,2.86,0,0,1,.52,1.65,3,3,0,0,1-1.34,2.53,8.73,8.73,0,0,0-1.8,1.58,4.33,4.33,0,0,0-1.34,2,18.25,18.25,0,0,1-1.8,8.09,13.43,13.43,0,0,1-2.06,3,3,3,0,0,1-2.12.88h-3a3,3,0,0,1,0-6h1.5a11.07,11.07,0,0,0,1.54-6,9.08,9.08,0,0,1,2.89-6,9.08,9.08,0,0,1-2.89-6,11.07,11.07,0,0,0-1.54-6Z"/><path class="cls-2" d="M40.67,206.73h-3a4.66,4.66,0,0,1,0-9.31h.53a10.12,10.12,0,0,0,.87-4.34,9.88,9.88,0,0,1,2.35-6A9.85,9.85,0,0,1,39,181a10.15,10.15,0,0,0-.87-4.34h-.53a4.66,4.66,0,0,1,0-9.31h3a4.64,4.64,0,0,1,3.28,1.36,1.15,1.15,0,0,1,.14.17,15,15,0,0,1,2.23,3.3,19.69,19.69,0,0,1,2,8.59,10,10,0,0,0,2.49,2.44,2.11,2.11,0,0,1,.23.19l.82.82c.07.07.13.15.19.22A4.51,4.51,0,0,1,52.8,187a4.59,4.59,0,0,1-2.09,3.9l-.15.09a8.51,8.51,0,0,0-1.4,1.21,5.55,5.55,0,0,0-.9,1.1,19.84,19.84,0,0,1-2,8.56,15,15,0,0,1-2.17,3.23l-.2.23A4.64,4.64,0,0,1,40.67,206.73Zm-3-6a1.37,1.37,0,0,0-1.35,1.39h0a1.34,1.34,0,0,0,1.35,1.35h3a1.38,1.38,0,0,0,.91-.35l.1-.12a11.39,11.39,0,0,0,1.7-2.54A16.71,16.71,0,0,0,45,193.08,5.3,5.3,0,0,1,46.83,190a9.91,9.91,0,0,1,2.18-1.8h0a1.36,1.36,0,0,0,.6-1.15,1.32,1.32,0,0,0-.16-.61l-.61-.6C47.62,185,45,182.75,45,181a16.86,16.86,0,0,0-1.63-7.36,11.39,11.39,0,0,0-1.7-2.54l-.1-.11a1.34,1.34,0,0,0-.91-.36h-3a1.38,1.38,0,0,0,0,2.75h1.5a1.63,1.63,0,0,1,1.37.75A12.4,12.4,0,0,1,42.32,181a7.53,7.53,0,0,0,2.42,4.89,1.63,1.63,0,0,1,0,2.28,7.55,7.55,0,0,0-2.42,4.89A12.48,12.48,0,0,1,40.5,200a1.64,1.64,0,0,1-1.37.74Z"/><path class="cls-1" d="M295.57,181.69a4.39,4.39,0,0,0-4.1,2.87H271.35a4.39,4.39,0,1,0,0,3h20.12a4.38,4.38,0,1,0,4.1-5.91Z"/><path class="cls-1" d="M295.57,112a4.39,4.39,0,0,0-4.1,2.87H271.35a4.39,4.39,0,1,0,0,3h20.12a4.38,4.38,0,1,0,4.1-5.91Z"/><path class="cls-1" d="M105.28,181.69a4.37,4.37,0,0,0-4.1,2.87H81.06a4.39,4.39,0,1,0,0,3h20.12a4.38,4.38,0,1,0,4.1-5.91Z"/><path class="cls-1" d="M105.28,112a4.37,4.37,0,0,0-4.1,2.87H81.06a4.39,4.39,0,1,0,0,3h20.12a4.38,4.38,0,1,0,4.1-5.91Z"/></g></g></g></g></svg>