<svg xmlns="http://www.w3.org/2000/svg" viewBox="0 0 269.51 156.73"><defs><style>.cls-1{fill:#fff;}.cls-2{fill:#f1f4de;}.cls-3{fill:#093844;}.cls-4{fill:#52616d;}.cls-5{fill:#e65848;}.cls-6{fill:#f1a20d;}.cls-7{fill:#a1c481;}.cls-8{fill:#8ba69d;}</style></defs><title>E-Commerce</title><g id="Layer_2" data-name="Layer 2"><g id="Layer_1-2" data-name="Layer 1"><path class="cls-1" d="M9.88,40.75,2.6,43.59a3.25,3.25,0,0,1-2.11.82s-.68-.24-.44-.53A38.44,38.44,0,0,1,3.57,42.1c.43-.24.72-.58.09-.78a1.5,1.5,0,0,1-1.15-.91c-.29-.58-.1-1.11.24-1.16s-.29-.86.91-1.15,1.74-.92,4.24-1.69c0,0,.92-.57-.14-.62s-1.16.77-.82-.44-.05-.91,1.4-1.1,2.79-.29,2.93-1.45,1.3-1.2,1.93-1.2a5.27,5.27,0,0,0,1.64-.39c.48-.14.62-.33,1-.33s1.3-.73,1.88-.73,1.78-.24,2.16-.24a3.52,3.52,0,0,0,1.45,0,2.8,2.8,0,0,1,1.88,0c.72.24,2.5.29,3.75.67s1.79-.28,3,.25a4.65,4.65,0,0,0,3.22.38c1.74-.19,3.9-.67,4.87-.43a2.55,2.55,0,0,1,2.12-.14c1,.48,1.73-.58,3.27.62s1.35,0,2.07.63,2,.67,3.57.28,2.69-.38,3.22,0a3,3,0,0,0,2.36.39c1-.19,1.4.29,1.54-.29a9.6,9.6,0,0,1,2,0c.63.14,1-.1,1-.58s-.34-1.06.38-1.59S61.55,29,62,29.29s.34.77.49,1.2.33,1.15,1.34,1,.92-.62.73-.91-.44-1,.77-1.79,1.34-1,2-1a7.18,7.18,0,0,1,2,0c.53.2,1.16-.29,2-.29s2.79.15,3,.68a1.66,1.66,0,0,0,1.4,1.3c1.25.24,2.12.77,2.07,1.73a1.49,1.49,0,0,0,1.06,1.64c.62.24.62,1.3.33,1.59s-1.68,1.49-2,1-1-1.25-1.35-1.15.34,1.05.34,1.66a1.23,1.23,0,0,1-.87,1.27c-.62.24-1,1.35-1.54,1.11s-2.41-.72-2.74-1.3-.39-1.2-1.26-1.08A11.75,11.75,0,0,1,68,36c-.29,0-.77-.08-.33-.7a1.2,1.2,0,0,1,1.63-.49c.68.29,1.55.15,1.69-.43s.77-.62,1.15-.86.92-.82.25-1.11-.39-.48-.73-.77a5.62,5.62,0,0,0-2.93-.34c-.73.19-.39.48-.63.72a5.61,5.61,0,0,0-.92,1.21,4,4,0,0,1-2.07,1.2c-.48.1-.81,0-.62.87s.77.38.58,1-.73.33-1,.19a1.19,1.19,0,0,0-1.34.14,1.06,1.06,0,0,1-1.54.1,2.13,2.13,0,0,0-2.12-.24c-.63.34-1,1.11-1.83,1.11a6.41,6.41,0,0,0-2.8,1.06c-.43.34-1.92,1.06-1.68,1.92s.14,1.21.29,1.4,1.87.58,2.07,1.06a3.12,3.12,0,0,0,2.12,1.11c.72.05,2,.24,1.54.72a5.59,5.59,0,0,0-1,1.69c-.14.33.1,1.39.68,1.25s1.49-.39,1.39-1.45a1.9,1.9,0,0,0,.34-.86c0-.39-.19-.73,1.16-1.21a4.63,4.63,0,0,0,2.07-1.15c.38-.39.82-1.21.38-1.55s-.72-.67.24-1.05,1-.58.87-1.35c0,0,.34-.72.72-.82s-.38-.68,1-1.11c0,0,2.32.06,2.7.41s1.5.94,1.74,1.37-.77,1.5-.39,1.74.72.86,2-.1S74.31,39,75,40.17a6.65,6.65,0,0,1,.43,3.27,1.27,1.27,0,0,0,.91,1.11c.87.24.63.82.77,1.06s.68.15.58,1.11-.86,1.88-.53,2.65,1.16,0,1,.82-.34.43-.15,1.49-.19,1.3-1.16,1a6.28,6.28,0,0,0-3.46-.53s-1.06.19-.48-.82,1.39-1.11,1-1.88-.58.25-1.25.1-2.51-.43-3.23.34A1.29,1.29,0,0,1,69.5,51c-.24.43-1.11.72-.82,2.11l.53.44s1.78-.19,1.73.77-.77.24-2.07.63a2.36,2.36,0,0,0-1.78.86c-.77.92-1.06.15-1.11,0s-.19-.62-1.4-.58a1.08,1.08,0,0,0-.77.48c-.24.44-.77,0-1.06.3a2.6,2.6,0,0,0-.86,1.78,10.81,10.81,0,0,1-1.93.77,9.57,9.57,0,0,0-4.48,4.81,2.84,2.84,0,0,1-.57,1.06c-.39.39-.15.68-.54.77a13.85,13.85,0,0,0-3.75,2.17c-.92.91-1.64,1.2-1.3,3.71s.48,3.08-1.21,3.66a8.63,8.63,0,0,1-1-2.94c0-1-.05-1.69-1.06-1.59s-.77-.19-.91-.44a1.46,1.46,0,0,0-1.64-.23c-.77.33-1.06.19-1.3.62s-.34.58-1,.53a9.61,9.61,0,0,1-1.52-.24c-.46-.14-.84-.62-1.9-.1s-2.65,1.16-3,1.79-.14,1.39-.57,2.16a7.29,7.29,0,0,0-.82,4.58c.33,2,1.44,2.41,3.18,2.36s1.83,0,2.26-1.15.19-1.55,1.44-1.69,2.7-.72,2.32.62a1.16,1.16,0,0,0-.53,1,5.11,5.11,0,0,1-1.11,2.65c-.72,1.06.34,1.3.58,1.35s2.4-.24,2.93.53c0,0,.68-.14.49,1.06s-.92,2.7-.77,3.81,2.11,1.87,2.5,1.54l.67.08v.83s-.24-.19-.24.43-.77,1.11-1.54,0c0,0-1.44-.19-1.78-1.15a3,3,0,0,1-2.22-2.46c-.43-2.11-1.63-1.59-2.16-1.73A5.19,5.19,0,0,1,36,85c-1.3-1.69-2.32-.63-2.32-.63a8.64,8.64,0,0,1-4-1.3c-1.93-1.25-1.73-.92-2.07-1.06s-.63-.87-1.21-1.06a1.48,1.48,0,0,1-.57-2c.48-.73-.24-1.64-.48-2.07s-.82-1.93-1.79-2.36c0,0-.29-.63,0-.82a3.51,3.51,0,0,1-.73-1.5,4,4,0,0,1-1-3.37s-.48-.86-1,0,.29.77.29,1.74.48,1.49.62,2.55a6.31,6.31,0,0,0,.92,2.55c.38.58-.05,1.73-.63.82s-1.54-.82-1.54-2.07-.67-.87-1.06-1.5-.19-1,.14-1.15.34-.77,0-1.11-.72-.82-.72-2.89a2.16,2.16,0,0,0-1.78-2.4c-.24,0-.43-.25-.43-1.31s-.34-.57-.05-1.68-.34-.82-.29-1.45-.1-.72.1-1.2,0-.58.57-1.25.29-1.35,1.79-2.89a12.33,12.33,0,0,0,2.45-3.71c.05-.24.19-.77-.62-2s0-1,.14-1.16.92-1.3.77-2.07a11.91,11.91,0,0,1,0-3.23c.14-.57-.43-.91-.53-1.44s-.72-.82-.87-1.35-1.11-.48-1.39-.53A3.59,3.59,0,0,0,17,39.69c-1,.09-1.11-1.16-2.17-.48a1.48,1.48,0,0,1-.43.67c-.29.19-2.89.87-2.89.87a.92.92,0,0,1-.73,0C10.31,40.51,10.36,40.56,9.88,40.75Z"/><path class="cls-1" d="M44.36,77.74a3.25,3.25,0,0,1,3-1.26,5,5,0,0,1,1.83.47c1,.45,1,.32,1.38.68s.82.91,1.29,1,.16.23.54.39,1.27.54,1.27.79-.09.32-.25.48a1.37,1.37,0,0,1-1.31,0,.66.66,0,0,0-.79-.16s-.75.29-.77-.29-.23-.55-.66-.84a4.12,4.12,0,0,1-1-.75c-.25-.32-.55-.18-.82-.27s-1-.07-1.2-.25a1.64,1.64,0,0,0-1.29.11C45.27,78,43.89,78.62,44.36,77.74Z"/><path class="cls-1" d="M57.18,80.45s1.17.3,1.26.83-1,.52-1.26.58a2.22,2.22,0,0,0-1.09.32,23.33,23.33,0,0,1-2.81-.36c-.52-.18-.27-.59.18-.61s1.14.09,1.09-.28-.88-.65-.34-1a2.7,2.7,0,0,1,1.09.13c.84.21.34-.22.88-.14S56.41,80.33,57.18,80.45Z"/><path class="cls-1" d="M51.26,89.4s.93-.85,1.52-.85A1.9,1.9,0,0,0,54,88.12c.41-.26.38-.6.86-.6a2.9,2.9,0,0,1,1,.17,2.83,2.83,0,0,1,1.08.57c.33.29.54,0,.78.31a1.71,1.71,0,0,0,1.43.67c.93.09.65.12.89.31s1.21.24,1.38-.1.41-.31.88-.26A5.57,5.57,0,0,0,63.51,89c.24,0,1.36,0,1.29.68s-.69,1,.31,1.8c0,0,.74-.11,1.55,1.32A2.82,2.82,0,0,0,69.36,94c.35.08.9,0,1.19.29s.67,0,1,.26.58.93,1.22,1.07a5.31,5.31,0,0,1,.64,1.48,1.87,1.87,0,0,0,.5,1.15c.22.16.19.59.22.76s.45,1.14,1,1.24a21.58,21.58,0,0,1,2,.81c1.29.46,2.7,1.46,3.63,1.77a3,3,0,0,0,1.69.16,1.85,1.85,0,0,1,1.31.39s1.08.93,1.58,1.4,1.19.31,1.45.46,1.72,1.33.58,4.46c0,0-.79,1.57-1.46,1.83a11.63,11.63,0,0,1-1.22,2.08,3.15,3.15,0,0,0-.19,2.5,2.3,2.3,0,0,1,0,1.08,4.83,4.83,0,0,0-.1,1.18c0,.48-.43.29-.43.65s.12,1.34-.16,1.72a3.21,3.21,0,0,0-.55,1.07c-.12.38.31.93-.48,1.27s0,.57-.69.73a17.43,17.43,0,0,1-1.84.27c-.4.07-.79.59-1.52.76s-2,1.12-1.89,2.31.48,1.86.07,2.48-.59.41-1,1.58a.8.8,0,0,1-.48.55c-.41.14-.52,1-.74,1.38s-1,2.5-1.88,3.08-.81,1.24-1,1.71-.15,1.29-.81,1.65-1.74.55-2,.95-.35,1.2-.71,1.65a2.57,2.57,0,0,0-.55,1.29,2.05,2.05,0,0,1-.52,1,.79.79,0,0,0-.17.81.71.71,0,0,1-.07.69,1.17,1.17,0,0,0-.24,1.5c.12.17.26.48.45.55a.81.81,0,0,1,.69.84c0,.64-.19.64-.5.91s-.4.37-.38.69a1.38,1.38,0,0,1-.33.78,1.63,1.63,0,0,0,.16,1c.17.29.86.5,1.1,1.36s.62.76,1,1a3.54,3.54,0,0,0,1.69.69c.88.12.74.95.33,1s-1.31,0-1.31,0a3.91,3.91,0,0,0-1.48-.36c-.74,0-.71-.19-.81-.58a1.64,1.64,0,0,0-1.57-.95c-.67.15-1.17.48-2-.47a13.09,13.09,0,0,1-1.07-1.46,3.9,3.9,0,0,0-.45-.91,6.79,6.79,0,0,1-1.1-2.72c-.12-1.09-.22-1.12-.53-1.42s-.33-1.67-.47-2a7,7,0,0,0-1.24-2.37,2.49,2.49,0,0,1-.67-1.93,9.29,9.29,0,0,0-.62-2.24,4.27,4.27,0,0,1,0-2.6,8.27,8.27,0,0,0-.43-4.72,9.29,9.29,0,0,1-.16-2.53,3.44,3.44,0,0,0,0-1.55,20.88,20.88,0,0,1-.12-2.13c0-.38-.19-4.07-.19-4.24s-.26-1.17-.26-1.34.07-.74-1-1.57a8.49,8.49,0,0,0-1.5-1.1,5.43,5.43,0,0,1-2.46-1.41c-.71-1-1-.92-1.07-1.26s0-.64-.38-1.07-.43-.84-.86-1.43a11.66,11.66,0,0,1-1.65-2.7,5,5,0,0,0-1.57-2.21c-.62-.53-.45-.65-.48-.91a2.23,2.23,0,0,1,.12-1.67c.43-.62.72-.91.48-1.31a3.41,3.41,0,0,1,.14-3.39,1.27,1.27,0,0,1,.55-.57c.34-.12.48-.55.72-.86a3.14,3.14,0,0,1,.9-.88,4.35,4.35,0,0,0,0-4.7,1.88,1.88,0,0,1,0-.67s-.43,0-.47-.33-.24-.93.85-.81,1.1.09,1.36-.15a1.71,1.71,0,0,0,.65-1C51,89.5,51.16,89.49,51.26,89.4Z"/><path class="cls-1" d="M94.26,21.49a23.09,23.09,0,0,1,2.93-.18c.68.07,2.67-.38,3.12-.38s2.52,0,3,0,1.31-.34,2-.34a25.5,25.5,0,0,1,4.4.3,8.45,8.45,0,0,1,1.8.6c.64.38,2.86.08,3.42.15s1.28.23.53.6a2.77,2.77,0,0,1-1.46.53,6.84,6.84,0,0,0-2.3.86c-.64.34-.71.38-.75,1.06s-.49.94-.6,1.35-.11.68-.45.9-.23.49-.6.72a4.51,4.51,0,0,1-1.47.71c-.38,0-.64.23-.53.9s.3,1.06-.07,1.39-.3.57-.72.64a3.22,3.22,0,0,0-1.51.45c-.37.34-3.22.75-3.67.91s-1.09.07-1.58.41-2.52,1.69-3.88,1.66-.67.29-1.65.33-.9.27-1.05.53S92.49,37,92,37.21a1.33,1.33,0,0,0-.75.67,8.23,8.23,0,0,1-.79,1c-.15.15-.94,1.42-1.69.86s-.75-.9-1.54-.9-.9.34-1.24-.6-.6-.79-.68-1.73a15,15,0,0,1-.19-2.71,2.16,2.16,0,0,1,1.77-1.88c1.09-.07.71-.56.45-.82a2,2,0,0,1-.53-2.45c.68-1.35-.22-2.33-1.5-2.55a7.4,7.4,0,0,0-2.82,0c-.6.11-2.48-.27-2.29-1.55,0,0,0-.49.6-.6s2.67-.22,3.08-.34,1.09-.3,1.13-.56.41-.41.83-.41,1.05-.34,1.91-.45a15.8,15.8,0,0,0,2.41-.49c.53-.19,2,0,2.59-.19A5,5,0,0,1,94.26,21.49Z"/><path class="cls-1" d="M111.85,35.18a1.8,1.8,0,0,1-1.2.71,3.91,3.91,0,0,0-1.5.56,1.86,1.86,0,0,1-1,.38,13,13,0,0,0-1.91-.3c-.46,0-.61-.08-1-.87s-1.09-.78-.49-1.12.64-.64,1.28-.64.9.34,1.35.3,2.07-.3,2.67-.3.94,0,1.17.3S112.12,34.57,111.85,35.18Z"/><path class="cls-1" d="M145,31.58a38.9,38.9,0,0,1,4.34,1.18c1.17.48.59-.3,1.66-.59s1,.1,1.61.39,2.2-.1,3.27-.73,1.07,0,2.59,0a5.06,5.06,0,0,0,2.68-.83c.59-.24,1.86.34,3-.93s.29-.53.68-.68-.34-.64,0-.83a3,3,0,0,1,3,.24s1.66-.14,2-.14,1.56-.1,1.9-.64.63-.44,1.17-.48a4.77,4.77,0,0,0,2.1-.88c.88-.59.24-.15,1.61-.59a10.26,10.26,0,0,1,3-.54,4.24,4.24,0,0,0,2.34-.78,2.07,2.07,0,0,1,2.29,0,16,16,0,0,0,2.39.54c.69.2,3.27-.1,4.3,1.46s1.31.93,1.85.93a7.13,7.13,0,0,0,2.34.05,16.13,16.13,0,0,1,5.47.1c1.66.39,2.49,0,3.17.34s2.15,2.14,4.3.93,2.58-.54,3.46-.44,4.25-.05,6.44.78a5,5,0,0,0,3.32.44c.93-.05,3-.1,3.61.43a4.48,4.48,0,0,0,2.93.69c1.27,0,2.83.05,3.32-.29s3.76.14,4.29.24,5.27.69,6,.83,2.63.95,3.31,1.13,3,.58,3.86.92,1.85,1,1.37,2-1.61.1-2.49-.24a5.41,5.41,0,0,0-2-.49c-.34,0-1.81.74-.64,1.2s2.54.66,2,1.39-.78-.25-1.56.29-1.61,1.75-2.39,2-2.44-.49-2.68,1.22c0,0,.78.93,1.22,1.51s.44.93.78,1.27a2.8,2.8,0,0,1,.53,2.44c-.24,1.17-.09,3.66-2.29,1.12s-2.83-2.24-3.32-3-1.66-1.56-1.12-3.17.93-1.71.15-2-1.32.09-1.52-.2-1.61-1.22-2.09-.29.34.88.48,1.36-.09.73-.63.73-1.85.2-2.1-.19a5,5,0,0,0-1.9-.1,15.59,15.59,0,0,1-1.76.1c-.44,0-1.8-.73-2.63.59s-1.08,2.24-.74,3,1.91,1,2.35,1l2.44,0s.44-.34,1.17.54,1.17.73,1.51,1.31a15.89,15.89,0,0,0,1.07,1.44,3.57,3.57,0,0,0,1.32,1.1c.59.29.69,1,1,1.66s1,1.51.53,2-1.26.05-1.61-.83-1.36-2.29-1.8-1.66a2,2,0,0,0-.49,1.47,6.64,6.64,0,0,1-.59,2.48c-.34.69-.09,2-1.27,2.15s-1.46,0-1.7.78-.2,1.32-.78,1.61-.39.73.29,1.27a6.72,6.72,0,0,1,2.49,3.12c.39,1.47-.49,1-.63,1s-1.32,1-1.71,0-1-2.38-1.91-2.82-.78-.93-1-1.42a1.24,1.24,0,0,0-1.86-.44c-.68.64-1.27.88-1.36.2s-.44-1.76-1.32-.69.34,2.1.93,2.25.63-.49,1.17-.15,1.36.1,1.51.39.1.49-.58.69-1.08.87-.93,1.27,1.17,1.51,1.51,2.09,1.17,1.47,1.61,2.35a5.54,5.54,0,0,1,.1,3.56,6.89,6.89,0,0,0-.54,1.75c0,.44-.29.69-.58,1a13.54,13.54,0,0,1-1,1.22c-.34.29-1.85,1.12-2.78,1.81s-3.22,2.1-3.66,1.66-1.37-1.13-1.71-.83-1.22.87-1.22,1.75.73,1.22.93,1.56,2,2,2.34,2.93a8.16,8.16,0,0,1,.54,2,3.41,3.41,0,0,1-.05,1.37,2,2,0,0,1-1.17,1.27c-.59.24-.39.53-.83.83a6.18,6.18,0,0,0-.93.9c-.29.27-.78.76-1.37-.41s-1.17-1.37-1.22-2.05a1.9,1.9,0,0,0-1.6-1.37,1.18,1.18,0,0,0-1.13.88c-.29.78-.58,1.12-.39,1.75s.15.4.44.44.24.24.34.76a5.07,5.07,0,0,0,1.61,2.07,4.12,4.12,0,0,1,1.66,2.45c.1,1-.1,1.31.44,2.14s.15,1.08-.59.88a6.48,6.48,0,0,1-3-3.76c-.44-1.75-1.9-2.34-2-2.83s.15-1.51.1-2a2.52,2.52,0,0,1,0-1.22,4.15,4.15,0,0,0-.2-2.1,9.08,9.08,0,0,1-1-2.39,1,1,0,0,0-1.37-.63c-.49.24-.88.83-1.17.39s-.78.14-.69-.88a4.28,4.28,0,0,0-.68-2.44c-.24-.39-.29-.63-.73-.73s-.83-1-.88-1.17-.44-1.56-1.22-1.27a6,6,0,0,1-2.15.34.94.94,0,0,0-1,.73,2.65,2.65,0,0,1-.64,1.13c-.29.34-.92.29-1.31,1.07s-.69.68-.83,1-.74.69-.88.93a2.34,2.34,0,0,1-.64.78,1.81,1.81,0,0,0-.92,1.76,4,4,0,0,1,0,2,4.7,4.7,0,0,0-.2,1.61,1.06,1.06,0,0,1-.19.88,3.93,3.93,0,0,1-.83,1c-.35.25-.88,1-1.17.93a2.33,2.33,0,0,1-1.42-1.71c-.29-1.12-1.42-3-1.51-3.9s-1.56-2.25-1.76-3.81-.59-2.1-.54-2.48-.34-1.23-1.12-.93-.93,0-1.17-.44-.88-.39-1-.59a3.87,3.87,0,0,0-1.26-1.9c-1-.68-1-1.81-2.59-1.56a11.74,11.74,0,0,1-5.86-.25s-1,0-1.17-.58-.44-1.27-.92-.78-1.27.34-2.2,0-2.29-.88-2.49-1.86-1.56-1.85-2.1-1.17.15,1.27.39,1.71a5.82,5.82,0,0,0,1.95,1.51c.64.3.74.59.74,1.08s-.3,1.27.49,1.27,1.56.24,2.14-.69,1.56-.24,1.91.39a1.12,1.12,0,0,0,1.31.73,1.35,1.35,0,0,1,.78.64c.25.49.93.92.59,1.56a17.82,17.82,0,0,1-.93,1.66c-.44.68-.1,1-.78,1.66s-1.56.88-1.8,1.32-.79.39-1.42.73a3.12,3.12,0,0,0-1.17,1,3.48,3.48,0,0,1-1.81,1c-.68.1-1,.63-1.66.68s-1.41.74-2.09.88-.88.78-1.81-.14-.73-1.61-1.32-2.69a14.32,14.32,0,0,0-1.17-2.2c-.54-.68.1-.87-1.12-2s-1.12-1.36-1.22-2.09a4.8,4.8,0,0,0-1.27-2.2,22.44,22.44,0,0,1-1.9-3c-.64-1-2-3-1.37-4.83s.59-2.1.78-2.44-.05-1.31.1-1.56c0,0-.39-1.12-1.17-.73s-1,.68-1.61.39-1.22-.78-1.76-.34-.73.19-1.12,0-1.37-.2-1.71-.44a2.52,2.52,0,0,1-1-2.59c.3-1.51-1.07-1.41-1.36-1.31a.83.83,0,0,0-.54,1.17,2.52,2.52,0,0,1-.06,1.85c-.23.59,0,1.47-.91,1.22s-.83-.29-.93-.63a4.85,4.85,0,0,0-.93-1.61,4,4,0,0,1-1-2.3,2.16,2.16,0,0,0-1.13-1.71,8.86,8.86,0,0,1-2-1.36c-.58-.64-1.66-1.66-2-1.32a.8.8,0,0,0,0,1.27c.44.44.69,1.22,1,1.46s.83.3,1.66.78,2,1.22,2,1.76-.34.29-.73,0-.73-.19-.54.44-.14.78-.24,1.07-.29.49-.88.66-.05,1-.49,1.2-3.16-1.13-2-1.47,1.1.15,2.07-.19.59-.88.44-1.17a7.54,7.54,0,0,0-2.54-1.86A5.18,5.18,0,0,1,128,55.94c-.15-.3-1-.93-1.22-.49s-.44.53-.78.49-.35.29-.59.39a3.22,3.22,0,0,1-1.61-.1c-.78-.19-1.27.1-1.27.83a1.73,1.73,0,0,1-.93,1.42c-.39.24-.88.19-1.12.58s-1,.93-1,1.37.38.53,0,.83-.39.78-.82,1-.49.68-1.22.78-1.47-.05-1.71.15a1.64,1.64,0,0,1-1.56-.1,1.24,1.24,0,0,0-1.32-.59c-.73.15-.93.1-1-.85s-.78-.51,0-1.73.15-1.9.34-2.44-.24-1,.25-1.32a1.9,1.9,0,0,1,1.56-.49c.73.1,2.29.15,3.22.2s1.12.34,1.37-.54a11.73,11.73,0,0,1,.34-1.46c.19-.44-.78-1.32-1.32-1.81s-1.36-.19-1.46-.78-.2-.58.44-.73,1.26,0,1.61-.25.39-.83,1-.68.93.2,1.32-.15.39-.34,1-.82a12.86,12.86,0,0,1,1.32-1c.63-.39.83-1.12,1.66-1.46s1.86-.54,1.81-1.37a2.42,2.42,0,0,1,.73-2.29c.73-.49.88-.39,1,.14a2.33,2.33,0,0,1-.14,1.52c-.2.48.48.87.48.87s.35.44,1.08,0a1.16,1.16,0,0,1,1.61.59,20.11,20.11,0,0,1,3-.93c.54,0,1.42.25,1.91-1.07s-.1-1.41,1.17-1.76.83-1.22.39-1.71-1.66-.14-1.81-1.56-.24-1.31.35-1.78,2.49-1.83,1.66-1.93-1.76.05-1.86.47a3,3,0,0,1-1.27,1.46c-.49.22-1.46.61-1.36,1.39s.44,1.17.78,1.27.44.54.19,1a1.58,1.58,0,0,1-.83.69s-.63-.05-.58.88-.2,1.66-.64,1.66a2.29,2.29,0,0,0-1,.39c-.34.14-2.49,1.07-2.39-.05s1.56-.44.92-1.37-1.56-2.24-2.09-1.75-2.44,1.66-3,0-.88-2.88,0-3.32,3.22-1.12,4.73-3.08S131,33,132.4,31.83a4.54,4.54,0,0,1,2.73-1.37c1.22-.24.73-.53,1.9-.58a28.24,28.24,0,0,1,4.35.37A6.31,6.31,0,0,1,143,31C143.43,31.24,144.5,31.2,145,31.58Z"/><path class="cls-1" d="M114.47,44.32a1.68,1.68,0,0,1,1.65.44c.54.73,0,.89-.16,1s-.35.11-.33.58a1.47,1.47,0,0,1-.22.86c-.1.27-.4.27-.65.27a2.09,2.09,0,0,0-.94.33c-.25.16-.9.7-1.33.16s-.35-.7-.14-1a1.15,1.15,0,0,0,.27-1c-.11-.43.06-.7.25-.7s.35,0,.87-.36S114,44.38,114.47,44.32Z"/><path class="cls-1" d="M118.48,41.39a.56.56,0,0,0,.24.5c.3.24.22.35.22.75a1.89,1.89,0,0,0,.19,1.06,4.77,4.77,0,0,0,.65,1.22c.27.27.46.22.54.81s.22.74.6.82.73.11.68.49a1.16,1.16,0,0,1-.54.7c-.2.16-.11.57-.38.73a5.52,5.52,0,0,1-2.2.44,1.62,1.62,0,0,0-1.25.32c-.4.22-1.33.6-1.19-.13s.41-1.12.54-2.06.46-.81.68-.82.84,0,.62-.54a1.25,1.25,0,0,0-.76-.79c-.27-.13-1.27-.81-1.29-1.41s-.22-1.08,0-1.35.81-1.14,1.24-1.09S118.38,41.06,118.48,41.39Z"/><path class="cls-1" d="M115.6,64.25s.79,0,1.12,0S117.66,64,118,64s.72-.3,1.12-.35.26-.48.79-.71.71,0,1.68-.18a5.27,5.27,0,0,1,2.39-.2c.48.2.68-.1,1-.2s1.17.07,1.83,0,.63-.29,1.32-.23.91.58.79.94a2.23,2.23,0,0,0,0,1.06c0,.33-.26.59-.39.94a1,1,0,0,0,.2.84,3,3,0,0,0,1.78.79c.61-.1,1.66,0,1.86.31s.46.86.63,1.06.9-.07,1.4.26,1.07.89,1.66.71.4-.61.25-.89a.69.69,0,0,1,.15-.79,1.37,1.37,0,0,1,.86-.53c.33,0,.49-.18.77-.21a2.64,2.64,0,0,1,1.27.39c.15.17.2.27.66.33a1.84,1.84,0,0,1,.94.38,2.13,2.13,0,0,0,.89.22c.18,0,1.09.18,1.57.31s.92.49,1.4.21.92-.67,1.35-.56,2,.56,2.41,3.15a3.83,3.83,0,0,1,.15,1.22c-.07.38.16.58.29.79a25,25,0,0,1,1.19,2.54,6.05,6.05,0,0,0,.89,1.37,3.14,3.14,0,0,1,.94,1.78c.41,1.47.13,1.57.92,2.41a4,4,0,0,1,1.14,2.37,1.51,1.51,0,0,0,.79,1.29c.35.23,1.06.26,1.32.74A7.08,7.08,0,0,0,157.46,87,1.3,1.3,0,0,1,158,88.2c-.1.48.3.58.61.83s1,.43,1.24.13.26,0,.51,0,1.4-.51,1.81-.56a12.9,12.9,0,0,1,1.39-.31c.56,0,.79-.48,1.15-.3s.28.33.23.58.11.81,0,1.27a4.05,4.05,0,0,1-.4,1.27c-.23.48-.91,2.11-1.14,2.62s-1.43,3.1-2.62,4-1.25.63-1.7,1.2-1.25,1.34-1.58,1.85a7.44,7.44,0,0,1-1.47,1.68,1.28,1.28,0,0,0-.59.74,17.15,17.15,0,0,1-.86,1.85,1.64,1.64,0,0,0-.28,1.42,8.47,8.47,0,0,1,.35,1.76,2.93,2.93,0,0,0,.21,1.68,5.09,5.09,0,0,1,.78,2.29c0,1-.27.5-.2,1.65a3.56,3.56,0,0,1-.69,3,5.63,5.63,0,0,1-2,1.47c-.56.31-.61.23-.89.64a1.77,1.77,0,0,1-1,.86c-.54.21-.79,1.37-.51,2.47a3.8,3.8,0,0,1,.13,2.06,2.47,2.47,0,0,1-.56,1.19c-.36.36-1.43.74-1.73,1.6s-.48,1.6-.59,1.91a1.17,1.17,0,0,1-.53.76,4,4,0,0,0-1,1.19,4.83,4.83,0,0,1-1.12,1.58c-.69.64-.89,1.15-1.42,1.45s-.79.61-1.38.69-.58.33-1.21.33a5.41,5.41,0,0,0-1.84.27,5.89,5.89,0,0,1-1.93.39,4.55,4.55,0,0,1-1.65-.23c-.23-.2-.51,0-.64-.84s-.33-.48-.27-1a4.59,4.59,0,0,0-.26-1.81,3.79,3.79,0,0,1-.35-1.24,1.44,1.44,0,0,0-.67-1.09,4,4,0,0,1-1.34-3c-.18-1.86-.31-1.27-.23-2.19s.05-1.32-.23-1.55a6.59,6.59,0,0,1-1.24-2.14,6,6,0,0,0-.77-1.62,1.54,1.54,0,0,1-.25-1.09,6.21,6.21,0,0,1,.38-2c.28-.56.28-2,1-2.77a1.77,1.77,0,0,0,.46-2.24,3.24,3.24,0,0,1-.53-1.75,3.72,3.72,0,0,0-.41-2.14,3.87,3.87,0,0,1-.53-1.62,7.51,7.51,0,0,0-1.07-1.61,10.53,10.53,0,0,1-1.22-1.57c-.13-.41-.56-.89-.33-1.61a3.47,3.47,0,0,0,.36-1.6,1.17,1.17,0,0,1,.15-.91c.1-.2.53-1.4-.38-1.81A3.28,3.28,0,0,0,125,96c-1.19,0-1.19-.43-1.24-.68A1.61,1.61,0,0,0,122,93.91a3.88,3.88,0,0,0-2.26.54,15.42,15.42,0,0,0-1.47.61,1.72,1.72,0,0,1-1.63.33c-.56-.23-.81.08-1-.18s-.66-.13-1,0a10.29,10.29,0,0,0-1.39.33c-.49.23-1.12.69-1.63.29a17.18,17.18,0,0,0-2.29-1.61,6,6,0,0,1-2.06-2c-.28-.64-.63-1.88-1.27-2.26s-.23-.56-1-1.27-.84-.31-1.07-1a4.31,4.31,0,0,1-.61-2.42c.16-1.17.74-1.17,1-1.7a5.63,5.63,0,0,0,.31-2.32,5,5,0,0,1-.31-1.14,3.43,3.43,0,0,1-.3-1.93c.23-1,.43-.71.53-1.07a3.6,3.6,0,0,1,.64-1.19,5.14,5.14,0,0,0,1-2.11c-.07-.41.44-.53.64-.64s.66-1.17.86-1.37.82-.1,1.4-.81a11.81,11.81,0,0,0,1.5-2,4.09,4.09,0,0,1,.48-1.27c.21-.21.06-.61.36-.82s.74-.86,1.12-1a1.47,1.47,0,0,0,1.07-.91c.12-.54.35-.23.56-.87s.2-.17.76-.22S115,64.24,115.6,64.25Z"/><path class="cls-1" d="M229.19,116.28a8.27,8.27,0,0,1,3-1.91s.26-.48.95.21,1.06.64,1.27.11.52-.64.84-1.06a4.56,4.56,0,0,1,1.17-1.11c.42-.27.63-1.11,1.42-.9a7,7,0,0,0,2.33.69c1.27,0,1.59.1,1.27,1.06s-.32,1.11-.58,1.42a1.17,1.17,0,0,0,.21,1.49c.48.52.74.15,2.17,1.37s1-.79,1.43-1.59,1-3.12,1.27-3.59.26-1.18.79-.88.48.82.64,1.3a20.3,20.3,0,0,0,.79,1.88c.31.71.69.66.74,1.51s.16,1.74.21,2.43.1.84.58,1.21a3.86,3.86,0,0,1,1.43,1.8,17.75,17.75,0,0,0,2,3.39,1.92,1.92,0,0,1,.63,1.58c0,.64-.53.9-.53,1.54a6.27,6.27,0,0,1-.74,2.11c-.21.43-.63,1.17-1,1.8s-1.16,1.11-1.8,1.8-1.58,1.32-1.74,1.75a6.5,6.5,0,0,1-1.06,1.27c-.27.31-1.22,1.85-1.69,2s-1,.74-1.49.68a1.51,1.51,0,0,0-1.11.32c-.31.21-.84-.1-1.58,0a8.21,8.21,0,0,1-2.75-.42c-.74-.22-1.16-.22-1.16-1.32a1.72,1.72,0,0,0-1.28-1.8c-.68-.27-1.53-.27-1.37-1.64s-1-1.27-1.48-1.59-.79-.79-1.75-.47a10.63,10.63,0,0,0-1.74.52c-.8.37-1.59,0-2.07.27s-.79.63-1.21.63-.64.21-1,.58-.9.38-1.69.38a7.67,7.67,0,0,0-3.7,1.11c-.37.37-1.22.1-1.59-.11s-1.37-.8-.32-1.69l.8-1.54s-.11-2.38-.11-3.17a17.57,17.57,0,0,0-.53-2.28,1.62,1.62,0,0,1,.32-1.42c.42-.58.26-1.32.69-1.8a1.22,1.22,0,0,0,.26-1.06s.05-.42.64-.53.32-.58.9-.63.47-.58,1.48-.74,1.42-.74,2.53-.9a3,3,0,0,0,1.91-1.17c.47-.42.74-1.53,1.32-2.06A9,9,0,0,1,229.19,116.28Z"/><path class="cls-1" d="M162.42,113.32s.62-1.38,1-.33a5.6,5.6,0,0,1,.5,1.64c.08.69.37.62.26,1.31a2.68,2.68,0,0,1-.47,1.09,3.76,3.76,0,0,0-.39,1.23,15.21,15.21,0,0,1-.67,2.22c-.25.69-1.09,2.62-1.31,3.42s0,.66-.36,1.2-.07.55-.58,1-.66.07-1.06.4-.62.14-.94,0a2.63,2.63,0,0,1-1.09-1.31A9.13,9.13,0,0,1,157,123a2.27,2.27,0,0,1,.44-1.13,2.18,2.18,0,0,0,.69-1.85,4.5,4.5,0,0,1-.11-2c.18-.51.25-1.16.95-1.31s.36-.18.83-.33a5.62,5.62,0,0,0,1.09-.51c.29-.14.22-.5.58-.9A15.63,15.63,0,0,0,162.42,113.32Z"/><path class="cls-1" d="M235.89,54.59s.14.23.89.4,1-.11,1.33.49.66.55.66.84-.4.55-.69.78-.43.61-.75.61-.32.2-.32.69.55.6.72,1.33a5.38,5.38,0,0,0,.52,1.21,3.3,3.3,0,0,1,.32,1.41c0,.72.38,1.73-.09,2.28s-.26.09-1.35.55-.75,0-1,.66a1.21,1.21,0,0,1-1.27.75,3,3,0,0,0-1.15.12,1.53,1.53,0,0,0-.93,1c-.09.55-.49,1-.78,1s-.32-.35-.83-.72a5.36,5.36,0,0,1-.7-1,.9.9,0,0,1,0-.9c.23-.52.29-1,.64-1.24s.23-.4.63-.57.32-.52.81-.5a1.72,1.72,0,0,0,1.47-.4c.38-.43.64-1.07,1.27-1.44s.87-.52.9-.9a5.57,5.57,0,0,0-.41-1.58,1.54,1.54,0,0,0-.35-.67c-.2-.23-.11-.4-.31-.78a2.06,2.06,0,0,0-.69-.83.81.81,0,0,1-.35-1,1.47,1.47,0,0,0-.06-1.3c-.17-.26-.23-.75.18-.84S235,54.19,235.89,54.59Z"/><path class="cls-1" d="M225.81,81.94a.68.68,0,0,1,.55-.63c.51-.08,1.2-.13,1.45.32s.34.16.36,1,0,.52-.16,1-.28.15-.36.66a1.75,1.75,0,0,0,.1,1.11c.13.22.27.34.42.24a1,1,0,0,1,1,0A1.32,1.32,0,0,0,230,86c.3,0,.28.28.28.51v.78s-.09.15-.47.11a2.17,2.17,0,0,1-1.32-.65c-.38-.41-.8-.2-1-.28a1.89,1.89,0,0,1-.87-.46c-.27-.3-.23-.34-.4-.4s-.27-.28-.38-.57A4.48,4.48,0,0,1,225.81,81.94Z"/><path class="cls-1" d="M211.42,99.14a4.23,4.23,0,0,1,2,2.46s.21.79.47.88a.94.94,0,0,1,.62,1c0,.59-.21.59-.12,1.35a1.77,1.77,0,0,0,.61,1.34,1.29,1.29,0,0,0,1,.41,1.5,1.5,0,0,1,.79.3,1.37,1.37,0,0,0,1.37,0c.36-.33.47-.06.8,0a2.24,2.24,0,0,1,.9.22,2.64,2.64,0,0,0,1.26,0,.46.46,0,0,1,.32.25c.09.2.44.73.71.81a1.3,1.3,0,0,1,.61.3c.18.17.29.23.26.58s-.29.18-.49.18-.53.2-.79,0-.06,0-.82-.07-.76.14-1.7-.06a21.21,21.21,0,0,0-2.52-.7c-.91-.09-1.17-.3-1.52-.32s-.41-.39-.94-.5a2,2,0,0,1-1.17-.94,6.34,6.34,0,0,0-1.43-1.67c-.73-.52-.85-1.31-1.38-1.72a1.49,1.49,0,0,1-.67-.91c-.12-.35-1-1.7-1.09-1.87a6.47,6.47,0,0,1-.84-1.73c-.06-.56-.71-.38-.82-.91a2.72,2.72,0,0,0-1-1.26c-.14-.06-1.23-1-1.23-1.37s-.11-.91.59-.62.84-.09,1.43.21.65.79,1.11,1.11A43.69,43.69,0,0,0,211.42,99.14Z"/><path class="cls-1" d="M223.66,93.55s.32-.91.82-.38A4.29,4.29,0,0,0,226,94.46c.76.32.32.49.27.76a2.53,2.53,0,0,1-.68.93c-.35.35-.35.38-.32.67s.47,1.26.52,1.85.56.38.3.82-.32.09-.76.7-.15.94-.73,1.2-.71.59-.59,1.09a1.5,1.5,0,0,1-.12,1c-.11.35.06.56-.49.79s-1,.47-1.53.15a4.9,4.9,0,0,0-1.43-.5c-.15,0-.62.38-1-.09s-1.17.18-1.4-.85-1-1.23-.91-2.52-.39-.7,0-1.56.63-1,1-1,1.37-.85,1.93-1a2.81,2.81,0,0,0,1.32-1.2c.26-.44.7-.44,1.17-.88A6.5,6.5,0,0,0,223.66,93.55Z"/><path class="cls-1" d="M230.13,99.11s.64.14.88-.3.49-.64.7-.38.12.82-.47,1.41-.58.53-.67,1a.94.94,0,0,1-.62.79c-.23.09-.55.06-.58.85a4.57,4.57,0,0,0,.29,1.5,4.86,4.86,0,0,1,.29,1.55c-.06.64-.55.55-.9.15s-1.21-.59-1.5-.15-.23.79-.79.73-.4-.7-.29-.91a1.23,1.23,0,0,0-.24-1.34c-.46-.41-.46-.62-.26-1.09s.44-.32.38-1,.18-.3.27-.65-.12-.76.08-1.17.5-.88.79-1,.38-.36.59-.39.73.24,1.14.27S229.84,99.09,230.13,99.11Z"/><path class="cls-1" d="M250.31,105.23a5.61,5.61,0,0,0,.72.82c.24.17.62.14,1,.62s-.1,1.26.27,2,.48.45.86.75a5.49,5.49,0,0,1,1,1.09c.24.38.31.93-.17.86a1.29,1.29,0,0,1-.89-.38c-.1-.17-1,0-1,0s-1.09-.2-1.4-.88a3,3,0,0,0-1.2-1.54c-.57-.34-1-.37-1.32.14s-.48,1.33-1.78,1.26-.51-.21-1.23-.61-1-.48-1.43-.38-1.47.55-1.06-.66,1-1.93-.68-2.75-1.77-.55-1.95-.79a1,1,0,0,0-1-.17c-.1.14-.65.41-.78-.07a1.7,1.7,0,0,0-.45-1c-.31-.31-.1-.31,0-.58s-.37-.92-.82-1.13-.75-.51-.44-.78.38.21.82-.17a2,2,0,0,1,1.94,0c.41.31.68.48.65.85s.38,1.16.69,1.13.61-.38,1-.51a2.4,2.4,0,0,0,.82-.48.88.88,0,0,1,1,0,11.43,11.43,0,0,0,2.18.76c.68.13.44.2.85.3s1.13.58,1.47.62.85.47,1.33.68S249.8,104.6,250.31,105.23Z"/><path class="cls-1" d="M266.28,136.72s-.11-1,.15-1.26.54-.08.69.15.53.46.5.92.11.65.34,1.33.57.46.69.46.72-.08.84.19-.15.88-.73,1.15-.42.49-1.07.76-.8.65-1.14,1a7.21,7.21,0,0,1-2.37,1.34c-.84.26-.57-.08-1.37.64a10.77,10.77,0,0,1-1.53,1.15c-.3.23-.23.42-.76.54s-.27.38-.73.42a5.49,5.49,0,0,0-1.26.45,3.94,3.94,0,0,0-.91.57,9.87,9.87,0,0,1-.88.65,4.1,4.1,0,0,1-1.33.65,6.09,6.09,0,0,1-1.68-.22c-.46-.08-.53-.54,0-.88s1.18-.77,1.56-1a11.26,11.26,0,0,1,1.6-.91,7.89,7.89,0,0,1,1.42-.46,3.74,3.74,0,0,0,1.83-1.07c.42-.42.72-.92,1.07-.95s.88-.74,1.41-.77a3,3,0,0,0,1.1-.42c.35-.11.42-.49.65-.72a2.34,2.34,0,0,1,1-.76c.76-.39.68-.88.92-1.42C266.61,137.56,266.13,138,266.28,136.72Z"/><path class="cls-1" d="M129.94,156.73h-6a4.34,4.34,0,0,1-4.33-4.34v-4.91A4.71,4.71,0,0,0,118,145.1a4.08,4.08,0,0,0-1.64,1.05l-3.47,3.47a4.33,4.33,0,0,1-6.13,0l-4.26-4.26a4.33,4.33,0,0,1,0-6.13l3.47-3.47a4.69,4.69,0,0,0,.57-2.8,4,4,0,0,0-1.9-.42H99.73a4.34,4.34,0,0,1-4.34-4.33v-6a4.34,4.34,0,0,1,4.34-4.33h4.91a4.65,4.65,0,0,0,2.37-1.58,3.92,3.92,0,0,0-1-1.64l-3.47-3.47a4.33,4.33,0,0,1,0-6.13l4.26-4.26a4.33,4.33,0,0,1,6.13,0l3.47,3.47a4,4,0,0,0,2.34.59l.46,0a4.1,4.1,0,0,0,.42-1.9V98a4.34,4.34,0,0,1,4.33-4.34h6A4.34,4.34,0,0,1,134.27,98v4.91a4.71,4.71,0,0,0,1.58,2.38,4.08,4.08,0,0,0,1.64-1.05l3.47-3.47a4.33,4.33,0,0,1,6.13,0l4.26,4.26a4.33,4.33,0,0,1,0,6.13l-3.47,3.47a4.67,4.67,0,0,0-.57,2.79,3.89,3.89,0,0,0,1.9.43h4.91a4.33,4.33,0,0,1,4.33,4.33v6a4.33,4.33,0,0,1-4.33,4.33h-4.91a4.71,4.71,0,0,0-2.38,1.58,4.08,4.08,0,0,0,1,1.64l3.47,3.47a4.33,4.33,0,0,1,0,6.13l-4.26,4.26a4.33,4.33,0,0,1-6.13,0l-3.47-3.47a4,4,0,0,0-2.34-.59l-.46,0a4,4,0,0,0-.42,1.9v4.91A4.34,4.34,0,0,1,129.94,156.73Zm-11.83-14.65a2.46,2.46,0,0,1,1.06.23c1,.47,3.41,2.86,3.41,5.17v4.91a1.34,1.34,0,0,0,1.33,1.34h6a1.34,1.34,0,0,0,1.33-1.34v-4.91c0-1.88.72-4.15,2.29-4.71a5.24,5.24,0,0,1,1.59-.21c.7,0,3.1.11,4.46,1.47l3.47,3.47a1.38,1.38,0,0,0,1.89,0l4.26-4.26a1.34,1.34,0,0,0,0-1.89l-3.47-3.47c-1.33-1.32-2.43-3.43-1.72-4.93.47-1,2.86-3.41,5.17-3.41h4.91a1.33,1.33,0,0,0,1.33-1.33v-6a1.33,1.33,0,0,0-1.33-1.33h-4.91c-1.88,0-4.15-.72-4.71-2.29-.37-1.06-.4-4.4,1.26-6l3.47-3.47a1.34,1.34,0,0,0,.39-1,1.32,1.32,0,0,0-.39-.94L145,102.89a1.38,1.38,0,0,0-1.89,0l-3.47,3.47a6.12,6.12,0,0,1-3.87,1.94,2.42,2.42,0,0,1-1.06-.22c-1-.47-3.41-2.86-3.41-5.17V98a1.34,1.34,0,0,0-1.33-1.34h-6A1.34,1.34,0,0,0,122.58,98v4.91c0,1.87-.72,4.15-2.29,4.71a5.28,5.28,0,0,1-1.59.21c-.7,0-3.1-.11-4.46-1.47l-3.47-3.47a1.38,1.38,0,0,0-1.89,0l-4.26,4.26a1.34,1.34,0,0,0,0,1.89l3.47,3.47c1.33,1.32,2.43,3.43,1.72,4.93-.47,1-2.86,3.41-5.17,3.41H99.73a1.34,1.34,0,0,0-1.34,1.33v6a1.34,1.34,0,0,0,1.34,1.33h4.91c1.87,0,4.15.72,4.71,2.29.37,1.06.4,4.4-1.26,6l-3.47,3.47a1.34,1.34,0,0,0,0,1.89l4.26,4.26a1.38,1.38,0,0,0,1.89,0l3.47-3.47A6.13,6.13,0,0,1,118.11,142.08Z"/><path class="cls-1" d="M126.92,138a12.8,12.8,0,1,1,12.8-12.8A12.82,12.82,0,0,1,126.92,138Zm0-22.6a9.8,9.8,0,1,0,9.8,9.8A9.82,9.82,0,0,0,126.92,115.39Z"/><rect class="cls-2" x="79.32" y="60.7" width="96" height="64.34"/><path class="cls-3" d="M175.31,126h-96a.92.92,0,0,1-.93-.92V60.7a.93.93,0,0,1,.93-.93h96a.93.93,0,0,1,.93.93v64.35A.92.92,0,0,1,175.31,126Zm-95.06-1.85h94.14V61.63H80.25Z"/><rect class="cls-4" x="85.49" y="66.88" width="80.86" height="51.99"/><path class="cls-3" d="M166.35,119.8H85.49a.93.93,0,0,1-.92-.93v-52a.93.93,0,0,1,.92-.93h80.86a.93.93,0,0,1,.93.93v52A.93.93,0,0,1,166.35,119.8Zm-79.93-1.86h79V67.81h-79Z"/><path class="cls-2" d="M172.51,92.87a1.86,1.86,0,1,0-1.86,1.86A1.85,1.85,0,0,0,172.51,92.87Z"/><path class="cls-3" d="M170.65,95.73a2.86,2.86,0,1,1,2.86-2.86A2.86,2.86,0,0,1,170.65,95.73Zm0-3.71a.86.86,0,1,0,.86.85A.86.86,0,0,0,170.65,92Z"/><path class="cls-3" d="M164.17,75l-9.78-21.19a1,1,0,0,0-.91-.58h-4.25V32a1,1,0,0,0-.63-.92c-2.47-12-21.11-26.65-22-27.31a1,1,0,0,0-1.22,0c-.85.66-19.49,15.27-22,27.31a1,1,0,0,0-.63.92V53.25H98.36a1,1,0,0,0-.9.58L87.68,75a1,1,0,0,0-.09.42V86.15A1,1,0,0,0,88,87a1,1,0,0,0,.59.19,1,1,0,0,0,.3,0l18.35-5.83c2.76,9.93,17.49,21.47,18.18,22l.61.47.61-.47c.69-.54,15.36-12,18.16-22L163,87.11a1.1,1.1,0,0,0,.31,0,1,1,0,0,0,.59-.19,1,1,0,0,0,.41-.81V75.44A1,1,0,0,0,164.17,75Z"/><path class="cls-3" d="M142.28,94.74a7.34,7.34,0,0,0-7.33,7.33c0,3.87,6,8.67,6.71,9.2l.62.48.61-.48c.69-.53,6.72-5.33,6.72-9.2A7.34,7.34,0,0,0,142.28,94.74Z"/><path class="cls-3" d="M107.47,92a4.9,4.9,0,0,0-4.89,4.89c0,2.51,3.56,5.41,4.28,6l.61.48.61-.48c.72-.55,4.28-3.45,4.28-6A4.9,4.9,0,0,0,107.47,92Z"/><rect class="cls-5" x="105.53" y="108.18" width="40.79" height="9.89"/><path class="cls-3" d="M146.32,119.06H105.53a1,1,0,0,1-1-1v-9.88a1,1,0,0,1,1-1h40.79a1,1,0,0,1,1,1v9.88A1,1,0,0,1,146.32,119.06Zm-39.79-2h38.79v-7.88H106.53Z"/><polygon class="cls-2" points="163.26 82.58 137.58 74.43 137.58 50.68 153.48 50.68 163.26 71.87 163.26 82.58"/><path class="cls-3" d="M163.26,83.58a1.12,1.12,0,0,1-.31,0l-25.68-8.15a1,1,0,0,1-.69-.95V50.68a1,1,0,0,1,1-1h15.9a1,1,0,0,1,.91.58l9.78,21.19a1,1,0,0,1,.09.42V82.58a1,1,0,0,1-.41.81A1.06,1.06,0,0,1,163.26,83.58ZM138.58,73.7l23.68,7.51V72.09l-9.42-20.41H138.58Z"/><path class="cls-2" d="M147.88,30C147.88,18,126,1,126,1s-21.85,17-21.85,29a21.85,21.85,0,0,0,43.7,0Z"/><path class="cls-3" d="M126,52.88A22.87,22.87,0,0,1,103.18,30c0-12.41,21.33-29.13,22.24-29.83a1,1,0,0,1,1.22,0c.91.7,22.24,17.42,22.24,29.83A22.87,22.87,0,0,1,126,52.88Zm0-50.6C122.52,5.13,105.18,19.71,105.18,30a20.85,20.85,0,0,0,41.7,0C146.88,19.71,129.54,5.13,126,2.28Z"/><path class="cls-6" d="M107.8,74.7C107.8,84.76,126,98.92,126,98.92s18.23-14.16,18.23-24.22a18.23,18.23,0,1,0-36.46,0Z"/><path class="cls-3" d="M126,100.19l-.61-.48c-.76-.59-18.62-14.58-18.62-25a19.23,19.23,0,1,1,38.46,0c0,10.43-17.86,24.42-18.62,25Zm0-42.72A17.25,17.25,0,0,0,108.8,74.7c0,8.45,14.09,20.39,17.23,22.94,3.14-2.55,17.23-14.49,17.23-22.94A17.25,17.25,0,0,0,126,57.47Z"/><path class="cls-6" d="M136,98.5c0,3.49,6.33,8.41,6.33,8.41s6.33-4.92,6.33-8.41a6.33,6.33,0,1,0-12.66,0Z"/><path class="cls-3" d="M142.28,108.18l-.62-.48c-.68-.53-6.71-5.33-6.71-9.2a7.33,7.33,0,1,1,14.66,0c0,3.87-6,8.67-6.72,9.2Zm0-15A5.34,5.34,0,0,0,137,98.5c0,2,3.05,5.22,5.33,7.13,2.28-1.91,5.33-5.13,5.33-7.13A5.34,5.34,0,0,0,142.28,93.16Z"/><path class="cls-6" d="M103.58,93.3c0,2.15,3.89,5.17,3.89,5.17s3.89-3,3.89-5.17a3.89,3.89,0,1,0-7.78,0Z"/><path class="cls-3" d="M107.47,99.73l-.61-.47c-.72-.56-4.28-3.45-4.28-6a4.89,4.89,0,1,1,9.78,0c0,2.51-3.56,5.4-4.28,6Zm0-9.32a2.9,2.9,0,0,0-2.89,2.89c0,1,1.56,2.71,2.89,3.87,1.36-1.18,2.89-2.88,2.89-3.87A2.9,2.9,0,0,0,107.47,90.41Z"/><polygon class="cls-2" points="88.59 82.58 114.27 74.43 114.27 50.68 98.36 50.68 88.59 71.87 88.59 82.58"/><path class="cls-3" d="M88.59,83.58a1,1,0,0,1-.59-.19,1,1,0,0,1-.41-.81V71.87a1,1,0,0,1,.09-.42l9.78-21.19a1,1,0,0,1,.9-.58h15.91a1,1,0,0,1,1,1V74.43a1,1,0,0,1-.7.95L88.89,83.53A1,1,0,0,1,88.59,83.58Zm1-11.49v9.12l23.68-7.51v-22H99Z"/><rect class="cls-7" x="103.83" y="28.44" width="44.4" height="47.08"/><path class="cls-3" d="M148.23,76.52h-44.4a1,1,0,0,1-1-1V28.44a1,1,0,0,1,1-1h44.4a1,1,0,0,1,1,1V75.52A1,1,0,0,1,148.23,76.52Zm-43.4-2h42.4V29.44h-42.4Z"/><path class="cls-3" d="M142.72,71H109.43a1.5,1.5,0,0,1,0-3h33.29a1.5,1.5,0,0,1,0,3Z"/><rect class="cls-2" x="121.08" y="54.77" width="9.91" height="32.24"/><path class="cls-3" d="M131,88h-9.9a1,1,0,0,1-1-1V54.77a1,1,0,0,1,1-1H131a1,1,0,0,1,1,1V87A1,1,0,0,1,131,88Zm-8.9-2H130V55.77h-7.9Z"/><path class="cls-8" d="M135.47,41.48A9.44,9.44,0,1,0,126,50.92,9.44,9.44,0,0,0,135.47,41.48Z"/><rect class="cls-1" x="124.96" y="31.67" width="4.43" height="17.88" transform="translate(-2.36 72.91) rotate(-31.71)"/><rect class="cls-1" x="122.08" y="34.74" width="1.47" height="17.88" transform="translate(-4.61 71.15) rotate(-31.74)"/><path class="cls-3" d="M126,51.92a10.44,10.44,0,1,1,10.44-10.44A10.45,10.45,0,0,1,126,51.92ZM126,33a8.44,8.44,0,1,0,8.44,8.44A8.45,8.45,0,0,0,126,33Z"/><path class="cls-3" d="M126,10.87a1,1,0,0,1-1-1V1a1,1,0,0,1,2,0V9.87A1,1,0,0,1,126,10.87Z"/><path class="cls-3" d="M126,17.36a1,1,0,0,1-1-1V13.87a1,1,0,0,1,2,0v2.49A1,1,0,0,1,126,17.36Z"/><path class="cls-3" d="M125.92,25.88a1,1,0,0,1-1-1v-3a1,1,0,0,1,2,0v3A1,1,0,0,1,125.92,25.88Z"/><rect class="cls-3" x="85.94" y="105.03" width="16.55" height="8.63"/><rect class="cls-3" x="152.62" y="108.09" width="12.81" height="9.85"/><rect class="cls-8" x="73.86" y="98.28" width="24.16" height="10.98"/><path class="cls-3" d="M98,110.25H73.86a1,1,0,0,1-1-1v-11a1,1,0,0,1,1-1H98a1,1,0,0,1,1,1v11A1,1,0,0,1,98,110.25Zm-23.17-2H97v-9H74.86Z"/><rect class="cls-7" x="157.95" y="102.69" width="24.16" height="10.98"/><path class="cls-3" d="M182.12,114.66H158a1,1,0,0,1-1-1v-11a1,1,0,0,1,1-1h24.17a1,1,0,0,1,1,1v11A1,1,0,0,1,182.12,114.66Zm-23.17-2h22.17v-9H159Z"/></g></g></svg>