<svg xmlns="http://www.w3.org/2000/svg" viewBox="0 0 338.22 66.68"><defs><style>.cls-1{fill:#ee2e62;}.cls-2{fill:#00a995;}.cls-3{fill:#faa61a;}.cls-4{fill:#782b90;}</style></defs><title>Logo-svg</title><g id="Layer_2" data-name="Layer 2"><g id="Layer_1-2" data-name="Layer 1"><g id="Layer_2-2" data-name="Layer 2"><g id="Layer_1-2-2" data-name="Layer 1-2"><g id="Layer_2-2-2" data-name="Layer 2-2"><g id="Layer_1-2-2-2" data-name="Layer 1-2-2"><circle class="cls-1" cx="274.34" cy="30.79" r="3.85"/><polygon points="294.61 41.64 287.42 41.64 275.91 10.57 279.46 1.06 294.61 41.64"/><polygon class="cls-2" points="273.9 11.18 262.61 41.64 255.42 41.64 266.8 11.18 273.9 11.18"/><polygon class="cls-3" points="270.73 0.39 274.34 10.04 277.95 0.39 270.73 0.39"/><rect x="181.63" y="0.99" width="6.6" height="41.25"/><polygon class="cls-4" points="199.19 42.25 189.88 42.25 189.88 35.92 196.09 35.92 199.19 42.25"/><polygon class="cls-4" points="196.09 7.32 189.88 7.32 189.88 0.99 199.19 0.99 196.09 7.32"/><polygon class="cls-3" points="189.88 16.72 199.93 20.8 189.88 24.88 189.88 16.72"/><path class="cls-1" d="M200.84,1V6.5a4.27,4.27,0,1,1,0,8.54h0v5.5a9.77,9.77,0,1,0,0-19.54Z"/><path class="cls-2" d="M200.84,21v5.5a5.14,5.14,0,0,1,0,10.27h0v5.5a10.64,10.64,0,0,0,0-21.27Z"/><polygon points="226.85 42.25 220.25 42.25 220.25 0.99 226.85 0.99 226.85 21.65 226.85 42.25"/><rect class="cls-1" x="228.51" y="0.99" width="19.25" height="6.33"/><rect class="cls-4" x="228.51" y="35.92" width="19.25" height="6.33"/><path class="cls-2" d="M240.52,22.18a3.3,3.3,0,1,0,3.3-3.3,3.3,3.3,0,0,0-3.3,3.3Z"/><rect class="cls-3" x="228.51" y="19.01" width="10.4" height="6.33"/><path d="M90.24,6.66l-4.67,4.71a15.14,15.14,0,0,0-22,20.8L58.9,36.84A21.75,21.75,0,0,1,90.24,6.66Z"/><path class="cls-1" d="M87.38,30.52l5.05,4.31A21.77,21.77,0,0,1,62,39.51,18.23,18.23,0,0,1,60.1,38l4.67-4.67A15.12,15.12,0,0,0,86.11,32.2v0h0a14.82,14.82,0,0,0,1.25-1.59Z"/><polygon class="cls-3" points="93.33 23.1 93.33 33.43 81.23 23.1 93.33 23.1"/><rect class="cls-2" x="65.6" y="18.79" width="6.22" height="6.22" transform="translate(4.64 55) rotate(-45)"/><rect x="100.97" y="1.27" width="6.6" height="41.25"/><rect class="cls-1" x="126.81" y="1.27" width="6.6" height="15.81"/><rect class="cls-2" x="126.81" y="26.06" width="6.6" height="16.46"/><path class="cls-3" d="M130.11,24.92a3.3,3.3,0,1,0-3.3-3.3,3.3,3.3,0,0,0,3.3,3.3Z"/><rect class="cls-4" x="109.22" y="18.46" width="16.23" height="6.33"/><rect class="cls-2" x="31.68" y="37.05" width="15.4" height="5.5"/><rect class="cls-1" x="31.68" y="1.3" width="15.4" height="5.5"/><path class="cls-3" d="M35.8,11.37A3.58,3.58,0,1,0,39.39,7.8h0a3.59,3.59,0,0,0-3.58,3.56Z"/><rect x="36.08" y="16.8" width="6.6" height="18.59"/><polygon points="0.28 40.23 6.88 38.47 6.88 18.3 0.28 18.3 0.28 40.23"/><rect class="cls-3" x="0.28" y="1.43" width="6.6" height="6.6"/><polygon class="cls-2" points="0.09 42.68 24.9 35.53 24.9 42.68 0.09 42.68"/><path class="cls-1" d="M0,13.1A3.58,3.58,0,1,0,3.58,9.52h0A3.59,3.59,0,0,0,0,13.08Z"/><polygon points="305.59 42.01 298.94 42.01 298.94 0.57 305.59 5.83 305.59 42.01"/><polygon class="cls-3" points="330.86 42.01 337.46 42.01 337.46 10.55 330.86 15.83 330.86 42.01"/><polygon class="cls-1" points="337.46 0.57 318.61 15.62 318.61 23.5 337.46 8.44 337.46 0.57"/><path class="cls-2" d="M307.91,14.83A3.85,3.85,0,1,0,311.78,11h0A3.85,3.85,0,0,0,307.91,14.83Z"/><rect class="cls-3" x="154.19" y="8.97" width="6.6" height="6.6"/><rect class="cls-2" x="167.47" y="0.99" width="6.33" height="6.33"/><rect class="cls-1" x="141.45" y="0.99" width="24.37" height="6.33"/><rect x="154.19" y="17.22" width="6.6" height="25.03"/><path d="M300.86,60.58c-.1-1.86-.22-4.1-.2-5.76h-.06c-.45,1.56-1,3.23-1.68,5.07l-2.35,6.48h-1.31L293.1,60c-.63-1.88-1.17-3.61-1.54-5.19h0c0,1.66-.14,3.9-.26,5.9l-.36,5.72H289.3l.93-13.34h2.2l2.27,6.45c.56,1.64,1,3.11,1.35,4.5h.06c.34-1.35.81-2.82,1.41-4.5l2.37-6.45h2.2l.83,13.34H301.2Z"/><path d="M306.57,62a3.05,3.05,0,0,0,2.78,3.32h0a2.09,2.09,0,0,0,.5,0,6.18,6.18,0,0,0,2.65-.49l.3,1.24a7.46,7.46,0,0,1-3.19.6c-2.95,0-4.71-1.94-4.71-4.83s1.7-5.17,4.5-5.17c3.12,0,4,2.75,4,4.51a5.55,5.55,0,0,1-.06.82Zm5.1-1.25c0-1.11-.45-2.83-2.41-2.83a2.9,2.9,0,0,0-2.68,2.83Z"/><path d="M323.79,52.37V64a22.57,22.57,0,0,0,.08,2.47h-1.56l-.08-1.66h0A3.55,3.55,0,0,1,319,66.66c-2.32,0-4.1-2-4.1-4.87,0-3.19,2-5.15,4.3-5.15a3.24,3.24,0,0,1,2.8,1.47h0V52.37Zm-1.74,8.38A3.16,3.16,0,0,0,322,60a2.58,2.58,0,0,0-2.51-2c-1.81,0-2.88,1.58-2.88,3.7,0,1.94.95,3.54,2.84,3.54A2.6,2.6,0,0,0,322,63.17a2.66,2.66,0,0,0,.08-.75Z"/><path d="M328.62,54.17a1,1,0,0,1-.93,1.07h-.18a1,1,0,0,1-1.05-.94v-.12a1.07,1.07,0,0,1,1-1.09h.06a1,1,0,0,1,1.07.93h0A.4.4,0,0,1,328.62,54.17Zm-1.94,12.27V56.86h1.74v9.58Z"/><path d="M336.62,66.44l-.14-1.21h-.06a3.52,3.52,0,0,1-2.93,1.43,2.71,2.71,0,0,1-2.92-2.5v0a.88.88,0,0,1,0-.23c0-2.32,2.06-3.59,5.76-3.57v-.2a2,2,0,0,0-1.77-2.2h-.4a5,5,0,0,0-2.5.71l-.39-1.15a6.19,6.19,0,0,1,3.14-.85c2.93,0,3.65,2,3.65,3.92v3.58a13.61,13.61,0,0,0,.16,2.3Zm-.26-4.89c-1.9,0-4.05.3-4.05,2.16a1.55,1.55,0,0,0,1.41,1.67H334a2.36,2.36,0,0,0,2.32-1.6,2.62,2.62,0,0,0,.09-.56Z"/></g></g></g></g></g></g></svg>