<svg xmlns="http://www.w3.org/2000/svg" viewBox="0 0 262.33 153.87"><defs><style>.cls-1{fill:#a1c481;}.cls-2{fill:#093844;}.cls-3{fill:#fcfcfc;}.cls-4{fill:#f1a20d;}.cls-5{fill:#52616d;}.cls-6{fill:#fff;}.cls-7{fill:#e65848;}.cls-8{fill:#82a352;}.cls-9{fill:#fdc536;}.cls-10{fill:#98c1c6;}</style></defs><title>Marketing</title><g id="Layer_2" data-name="Layer 2"><g id="Layer_1-2" data-name="Layer 1"><path class="cls-1" d="M176.87,54.38a4.67,4.67,0,1,0-4.64,4.7A4.66,4.66,0,0,0,176.87,54.38Z"/><path class="cls-2" d="M172.2,60.08a5.67,5.67,0,1,1,5.67-5.71,5.68,5.68,0,0,1-5.67,5.71Zm0-9.33a3.65,3.65,0,0,0-3.66,3.69,3.68,3.68,0,0,0,3.66,3.64v1l0-1a3.67,3.67,0,0,0,0-7.33Z"/><path class="cls-3" d="M231.45,56.3c0-3.95-2.54-7.18-5.73-7.2s-5.8,3.16-5.83,7.11,2.54,7.18,5.73,7.2S231.42,60.25,231.45,56.3Z"/><path class="cls-2" d="M222.89,63.19h0a8,8,0,0,1-3.55-7c0-4.25,2.9-7.68,6.39-7.66a5.43,5.43,0,0,1,2.72.77,8,8,0,0,1,3.55,7,8.62,8.62,0,0,1-1.86,5.39A5.8,5.8,0,0,1,225.61,64,5.43,5.43,0,0,1,222.89,63.19Zm5-12.92a4.16,4.16,0,0,0-2.17-.62c-2.89,0-5.26,2.92-5.28,6.57a6.89,6.89,0,0,0,3,6,4.16,4.16,0,0,0,2.17.62A4.73,4.73,0,0,0,229.3,61a7.51,7.51,0,0,0,1.6-4.71A6.89,6.89,0,0,0,227.89,50.27Z"/><path class="cls-3" d="M191.16,65.45A6.78,6.78,0,0,0,194,69.82s-5.21,1.94-7.16,0C186.79,69.8,183.65,60.33,191.16,65.45Z"/><path class="cls-2" d="M187,70.65a3,3,0,0,1-.59-.46.46.46,0,0,1-.13-.21c-.16-.49-1.53-4.82.17-6.19.87-.7,2.2-.5,4.08.61.3.17.61.38.94.6a.58.58,0,0,1,.24.37,6.25,6.25,0,0,0,2.51,4,.56.56,0,0,1-.07,1C193.94,70.4,189.4,72.07,187,70.65Zm.27-1.15a3.06,3.06,0,0,0,.29.21c1.29.76,3.69.34,5.22-.09a7.71,7.71,0,0,1-2.11-3.84l-.7-.44c-1.37-.81-2.38-1.06-2.83-.7C186.35,65.27,186.73,67.82,187.26,69.5Z"/><path class="cls-3" d="M190.75,74.08a2.13,2.13,0,0,1-1.43,2.66l-6.09,1.82a2.14,2.14,0,0,1-2.66-1.42l-4.69-15.63a2.14,2.14,0,0,1,1.43-2.65l6.1-1.83a2.12,2.12,0,0,1,2.65,1.43Z"/><path class="cls-2" d="M181.25,78.83a2.64,2.64,0,0,1-1.2-1.54l-4.69-15.62a2.68,2.68,0,0,1,.21-2,2.64,2.64,0,0,1,1.59-1.3l6.09-1.83a2.68,2.68,0,0,1,3.34,1.8l4.69,15.63a2.69,2.69,0,0,1-1.8,3.33l-6.1,1.83A2.69,2.69,0,0,1,181.25,78.83Zm3.58-21.12a1.55,1.55,0,0,0-1.26-.16l-6.1,1.83a1.58,1.58,0,0,0-1.06,2L181.1,77a1.62,1.62,0,0,0,2,1.06l6.09-1.83a1.58,1.58,0,0,0,1.07-2l-4.69-15.63A1.55,1.55,0,0,0,184.83,57.71Z"/><path class="cls-1" d="M194.51,44l-17.87,0a4.4,4.4,0,0,0-4.42,4.4l0,14.39a4.4,4.4,0,0,0,4.4,4.42l17.87,0Z"/><path class="cls-2" d="M194.46,68.2h0l-17.87,0a5.39,5.39,0,0,1-5.4-5.42l0-14.39a5.41,5.41,0,0,1,5.41-5.4l17.88,0a1,1,0,0,1,1,1l0,23.21a1,1,0,0,1-1,1ZM176.64,45a3.41,3.41,0,0,0-3.42,3.4l0,14.39a3.4,3.4,0,0,0,3.4,3.42l16.87,0,0-21.22Z"/><path class="cls-4" d="M226.48,76a1.54,1.54,0,0,1-1.54,1.53h-5A1.53,1.53,0,0,1,218.4,76l.08-40.61A1.54,1.54,0,0,1,220,33.81h5a1.54,1.54,0,0,1,1.53,1.54Z"/><path class="cls-2" d="M218.87,77.75a2.11,2.11,0,0,1-1-1.8l.09-40.61A2.08,2.08,0,0,1,220,33.26l5,0a2,2,0,0,1,1.05.28,2.12,2.12,0,0,1,1,1.8L227,76a2.06,2.06,0,0,1-.61,1.47,2.11,2.11,0,0,1-1.48.61l-5,0A2.05,2.05,0,0,1,218.87,77.75Zm6.67-43.24a1,1,0,0,0-.5-.14h-5a1,1,0,0,0-1,1L218.94,76a1,1,0,0,0,1,1h5a1,1,0,0,0,1-1L226,35.36A1,1,0,0,0,225.54,34.51Z"/><path class="cls-3" d="M194.51,44l0,23.21s16.87-.4,23.94,8.75l.08-40.61C211.38,44.46,194.51,44,194.51,44Z"/><path class="cls-2" d="M193.91,67.76,194,43.43h.56c.16,0,16.67.36,23.52-8.43l1-1.27-.1,43.81-1-1.27a17,17,0,0,0-4.84-4.16c-7.73-4.58-18.54-4.37-18.64-4.37Zm1.15-23.22L195,66.65c2.38,0,11.6.35,18.66,4.52a19.1,19.1,0,0,1,4.18,3.3l.08-37.65C211,44.12,198,44.54,195.06,44.54Z"/><path class="cls-3" d="M241.4,60.84a5,5,0,0,1,0-9.92l16-.1a5,5,0,0,1,.06,9.93l-16,.09Zm16-7-16,.1a2,2,0,0,0-1.95,2,2,2,0,0,0,2,2v1.5l0-1.5,16-.09a2,2,0,0,0,0-3.93Z"/><path class="cls-3" d="M242.26,79.7a4.93,4.93,0,0,1-3.49-1.43l-5.2-4.83a5,5,0,0,1-.07-7,5,5,0,0,1,7,0l5.2,4.83a5,5,0,0,1-3.45,8.52ZM237,67.92a2,2,0,0,0-1.37,3.36l5.19,4.82a2,2,0,0,0,2.81,0,2,2,0,0,0,0-2.78l-5.19-4.82A2,2,0,0,0,237,67.92Z"/><path class="cls-3" d="M235.56,47.25A5,5,0,0,1,232,38.8l4.82-5.2a5,5,0,0,1,3.56-1.5,4.91,4.91,0,0,1,3.49,1.43,5,5,0,0,1,0,7l-4.82,5.2A4.94,4.94,0,0,1,235.56,47.25Zm4.86-12.15a1.91,1.91,0,0,0-1.39.58l-4.83,5.19a2,2,0,0,0-.6,1.43,2,2,0,0,0,.59,1.38,2,2,0,0,0,2.77,0l4.83-5.2a2,2,0,0,0-1.37-3.37Z"/><path class="cls-2" d="M223.91,41.76a1,1,0,0,1-1-.95,1,1,0,0,1,1-1.05l2.1-.1a1,1,0,0,1,.1,2l-2.1.1Z"/><path class="cls-2" d="M223.5,71.29a1,1,0,0,1-.05-2l2.1-.1a1,1,0,0,1,.1,2l-2.1.1Z"/><path class="cls-2" d="M223.6,56.7a1,1,0,0,1,0-2l2.1-.1a1,1,0,0,1,1,1,1,1,0,0,1-.95,1l-2.1.1Z"/><path class="cls-2" d="M172.17,50.75a1,1,0,0,1-1-1,1,1,0,0,1,1-1l4.72,0h0a1,1,0,0,1,0,2l-4.73,0Z"/><path class="cls-2" d="M172.42,55.41a1,1,0,1,1,0-2l9.31-.06h0a1,1,0,0,1,0,2l-9.32.06Z"/><path class="cls-2" d="M172.23,60.08a1,1,0,1,1,0-2l4.73,0h0a1,1,0,0,1,1,1,1,1,0,0,1-1,1l-4.73,0Z"/><path class="cls-2" d="M194.38,55.27a1,1,0,0,1,0-2l10.09-.07h0a1,1,0,0,1,0,2l-10.09.07Z"/><path class="cls-2" d="M208.9,55.17a1,1,0,0,1-1-1,1,1,0,0,1,1-1l4.57,0h0a1,1,0,0,1,1,1,1,1,0,0,1-1,1l-4.57,0Z"/><rect class="cls-3" x="88.17" y="72.7" width="117.51" height="80.16"/><path class="cls-2" d="M205.68,153.87H88.17a1,1,0,0,1-1-1V72.7a1,1,0,0,1,1-1H205.68a1,1,0,0,1,1,1v80.17A1,1,0,0,1,205.68,153.87Zm-116.51-2H204.68V73.7H89.17Z"/><rect class="cls-5" x="94.83" y="79.36" width="101.19" height="66.84"/><path class="cls-2" d="M196,147.21H94.83a1,1,0,0,1-1-1V79.36a1,1,0,0,1,1-1H196a1,1,0,0,1,1,1v66.85A1,1,0,0,1,196,147.21Zm-100.19-2H195V80.36H95.83Z"/><path class="cls-3" d="M202.65,112.79a2,2,0,1,0-2,2A2,2,0,0,0,202.65,112.79Z"/><path class="cls-2" d="M200.65,115.79a3,3,0,1,1,3-3A3,3,0,0,1,200.65,115.79Zm0-4a1,1,0,1,0,1,1A1,1,0,0,0,200.65,111.78Z"/><path class="cls-2" d="M133.72,99.23c-4.31-2.5-7.85-.46-7.85,4.53V132c0,5,3.54,7,7.85,4.53l24.44-14.11c4.31-2.5,4.31-6.58,0-9.07Z"/><path class="cls-2" d="M133.72,99.23c-4.31-2.5-7.85-.46-7.85,4.53V132c0,5,3.54,7,7.85,4.53l24.44-14.11c4.31-2.5,4.31-6.58,0-9.07Z"/><path class="cls-3" d="M137.47,92.14c-4.32-2.49-7.85-.45-7.85,4.53V124.9c0,5,3.53,7,7.85,4.53l24.43-14.11c4.32-2.49,4.32-6.57,0-9.07Z"/><path class="cls-2" d="M134,131.5h0c-3.26,0-5.36-2.59-5.36-6.6V96.67c0-4,2.1-6.59,5.36-6.59a8,8,0,0,1,4,1.2l24.43,14.11c2.41,1.39,3.74,3.31,3.74,5.4s-1.33,4-3.74,5.4L138,130.3A8.09,8.09,0,0,1,134,131.5Zm0-39.42c-2.1,0-3.36,1.71-3.36,4.59V124.9c0,2.88,1.26,4.6,3.36,4.6h0a6.19,6.19,0,0,0,3-.94l24.43-14.11c1.77-1,2.74-2.32,2.74-3.66s-1-2.65-2.74-3.67L137,93A6.17,6.17,0,0,0,134,92.08Z"/><path class="cls-3" d="M137.47,92.14c-4.32-2.49-7.85-.45-7.85,4.53V124.9c0,5,3.53,7,7.85,4.53l24.43-14.11c4.32-2.49,4.32-6.57,0-9.07Z"/><path class="cls-2" d="M134,131.5h0c-3.26,0-5.36-2.59-5.36-6.6V96.67c0-4,2.1-6.59,5.36-6.59a8,8,0,0,1,4,1.2l24.43,14.11c2.41,1.39,3.74,3.31,3.74,5.4s-1.33,4-3.74,5.4L138,130.3A8.09,8.09,0,0,1,134,131.5Zm0-39.42c-2.1,0-3.36,1.71-3.36,4.59V124.9c0,2.88,1.26,4.6,3.36,4.6h0a6.19,6.19,0,0,0,3-.94l24.43-14.11c1.77-1,2.74-2.32,2.74-3.66s-1-2.65-2.74-3.67L137,93A6.17,6.17,0,0,0,134,92.08Z"/><rect class="cls-6" x="1" y="44.98" width="111.99" height="71.77"/><path class="cls-2" d="M113,117.75H1a1,1,0,0,1-1-1V45a1,1,0,0,1,1-1H113a1,1,0,0,1,1,1v71.77A1,1,0,0,1,113,117.75Zm-111-2H112V46H2Z"/><rect class="cls-2" x="6.83" y="50.98" width="27.52" height="27.52"/><rect class="cls-6" x="6.83" y="82.98" width="99.16" height="12.76"/><rect class="cls-2" x="6.83" y="100.58" width="99.16" height="11.17"/><rect class="cls-6" x="1" y="35.15" width="111.99" height="9.83"/><path class="cls-2" d="M113,46H1a1,1,0,0,1-1-1V35.15a1,1,0,0,1,1-1H113a1,1,0,0,1,1,1V45A1,1,0,0,1,113,46ZM2,44H112V36.15H2Z"/><path class="cls-7" d="M9.16,40.07a2.33,2.33,0,1,0-2.33,2.32A2.33,2.33,0,0,0,9.16,40.07Z"/><path class="cls-8" d="M25.24,40.07a2.33,2.33,0,1,0-2.32,2.32A2.32,2.32,0,0,0,25.24,40.07Z"/><path class="cls-9" d="M17.2,40.07a2.33,2.33,0,1,0-2.33,2.32A2.33,2.33,0,0,0,17.2,40.07Z"/><path class="cls-2" d="M106,41.07H41a1,1,0,0,1,0-2h65a1,1,0,0,1,0,2Z"/><path class="cls-10" d="M27.49,60.67a6.9,6.9,0,1,0-6.9,6.9A6.9,6.9,0,0,0,27.49,60.67Z"/><path class="cls-10" d="M20.59,64.88a9.69,9.69,0,0,0-9.69,9.69H30.28A9.69,9.69,0,0,0,20.59,64.88Z"/><path class="cls-2" d="M103.18,53.67H56.41a1,1,0,0,1,0-2h46.77a1,1,0,0,1,0,2Z"/><path class="cls-2" d="M103.18,61.64H41.76a1,1,0,0,1,0-2h61.42a1,1,0,0,1,0,2Z"/><path class="cls-2" d="M103.18,69.6H41.76a1,1,0,1,1,0-2h61.42a1,1,0,0,1,0,2Z"/><path class="cls-2" d="M87.52,77.57H41.76a1,1,0,1,1,0-2H87.52a1,1,0,0,1,0,2Z"/><path class="cls-6" d="M141.38,57.67h0a28.83,28.83,0,0,1-10-55.88,28.6,28.6,0,0,1,10-1.79,28.94,28.94,0,0,1,27.06,18.87,28.86,28.86,0,0,1-27.05,38.8Zm0-54.67a25.84,25.84,0,0,0,0,51.67h0a25.84,25.84,0,0,0,0-51.67Z"/><path class="cls-6" d="M115.36,27.07a1.49,1.49,0,0,1-1.2-.6,1.51,1.51,0,0,1,.3-2.1A81.68,81.68,0,0,1,159,8a1.5,1.5,0,0,1,.17,3,78.63,78.63,0,0,0-42.88,15.8A1.48,1.48,0,0,1,115.36,27.07Z"/><path class="cls-6" d="M124.05,50.66a1.5,1.5,0,0,1-.09-3,78.6,78.6,0,0,0,42.88-15.8,1.5,1.5,0,0,1,1.81,2.39,81.45,81.45,0,0,1-44.51,16.4Z"/><path class="cls-6" d="M137.64,56.53a1.49,1.49,0,0,1-1.2-.6A81.51,81.51,0,0,1,120,11.42a1.5,1.5,0,1,1,3-.17,78.62,78.62,0,0,0,15.8,42.87,1.5,1.5,0,0,1-.29,2.1A1.47,1.47,0,0,1,137.64,56.53Z"/><path class="cls-6" d="M161.22,47.84a1.51,1.51,0,0,1-1.5-1.41,78.55,78.55,0,0,0-15.8-42.88,1.5,1.5,0,0,1,2.4-1.81,81.66,81.66,0,0,1,16.4,44.51,1.49,1.49,0,0,1-1.41,1.58Z"/><path class="cls-6" d="M115.73,39.79a1.5,1.5,0,0,1-.51-2.91L166.5,18a1.5,1.5,0,1,1,1,2.81l-51.29,18.9A1.55,1.55,0,0,1,115.73,39.79Z"/><path class="cls-6" d="M150.83,56a1.51,1.51,0,0,1-1.41-1L130.52,3.71a1.5,1.5,0,0,1,2.81-1L152.23,54a1.49,1.49,0,0,1-.89,1.92A1.32,1.32,0,0,1,150.83,56Z"/></g></g></svg>