<svg xmlns="http://www.w3.org/2000/svg" viewBox="0 0 271.06 142.03"><defs><style>.cls-1{fill:#80c1be;}.cls-2{fill:#093844;}.cls-3{fill:#fff;}.cls-4{fill:#2ba69d;}.cls-5{fill:#243247;}.cls-6{fill:#2278b2;}.cls-7{fill:#cc2219;}.cls-8{fill:#82a352;}.cls-9{fill:#fdc536;}</style></defs><title>Webidea_2</title><g id="Layer_2" data-name="Layer 2"><g id="Layer_1-2" data-name="Layer 1"><rect class="cls-1" x="90.29" y="127.84" width="113.26" height="13.13"/><path class="cls-2" d="M203.54,142H90.29A1.06,1.06,0,0,1,89.23,141V127.84a1.06,1.06,0,0,1,1.06-1.06H203.54a1.07,1.07,0,0,1,1.06,1.06V141A1.07,1.07,0,0,1,203.54,142Zm-112.2-2.12H202.49v-11H91.34Z"/><path class="cls-2" d="M95,132.41a1,1,0,0,1-1-1v-3.52a1.06,1.06,0,1,1,2.11,0v3.52A1.05,1.05,0,0,1,95,132.41Z"/><path class="cls-2" d="M200,132.41a1,1,0,0,1-1.05-1v-3.52a1.06,1.06,0,1,1,2.11,0v3.52A1.05,1.05,0,0,1,200,132.41Z"/><path class="cls-2" d="M194.77,135.35a1.06,1.06,0,0,1-1.06-1.06v-6.45a1.06,1.06,0,0,1,2.12,0v6.45A1.06,1.06,0,0,1,194.77,135.35Z"/><path class="cls-2" d="M189.52,132.41a1.05,1.05,0,0,1-1.06-1v-3.52a1.06,1.06,0,1,1,2.11,0v3.52A1,1,0,0,1,189.52,132.41Z"/><path class="cls-2" d="M184.27,132.41a1.05,1.05,0,0,1-1.06-1v-3.52a1.06,1.06,0,1,1,2.11,0v3.52A1,1,0,0,1,184.27,132.41Z"/><path class="cls-2" d="M179,132.41a1,1,0,0,1-1-1v-3.52a1.06,1.06,0,1,1,2.11,0v3.52A1.05,1.05,0,0,1,179,132.41Z"/><path class="cls-2" d="M173.76,132.41a1.06,1.06,0,0,1-1.06-1v-3.52a1.06,1.06,0,0,1,2.12,0v3.52A1.06,1.06,0,0,1,173.76,132.41Z"/><path class="cls-2" d="M168.51,135.35a1.06,1.06,0,0,1-1.06-1.06v-6.45a1.06,1.06,0,1,1,2.11,0v6.45A1.05,1.05,0,0,1,168.51,135.35Z"/><path class="cls-2" d="M163.26,132.41a1.05,1.05,0,0,1-1.06-1v-3.52a1.06,1.06,0,1,1,2.11,0v3.52A1,1,0,0,1,163.26,132.41Z"/><path class="cls-2" d="M158,132.41a1,1,0,0,1-1.05-1v-3.52a1.06,1.06,0,1,1,2.11,0v3.52A1.05,1.05,0,0,1,158,132.41Z"/><path class="cls-2" d="M152.75,132.41a1,1,0,0,1-1.05-1v-3.52a1.06,1.06,0,1,1,2.11,0v3.52A1.06,1.06,0,0,1,152.75,132.41Z"/><path class="cls-2" d="M147.5,132.41a1.06,1.06,0,0,1-1.06-1v-3.52a1.06,1.06,0,1,1,2.11,0v3.52A1,1,0,0,1,147.5,132.41Z"/><path class="cls-2" d="M142.25,135.35a1.05,1.05,0,0,1-1.06-1.06v-6.45a1.06,1.06,0,1,1,2.11,0v6.45A1.05,1.05,0,0,1,142.25,135.35Z"/><path class="cls-2" d="M137,132.41a1,1,0,0,1-1.05-1v-3.52a1.06,1.06,0,1,1,2.11,0v3.52A1.05,1.05,0,0,1,137,132.41Z"/><path class="cls-2" d="M131.74,132.41a1.06,1.06,0,0,1-1.06-1v-3.52a1.06,1.06,0,0,1,2.12,0v3.52A1.06,1.06,0,0,1,131.74,132.41Z"/><path class="cls-2" d="M126.49,132.41a1.06,1.06,0,0,1-1.06-1v-3.52a1.06,1.06,0,0,1,2.12,0v3.52A1.06,1.06,0,0,1,126.49,132.41Z"/><path class="cls-2" d="M121.24,132.41a1.05,1.05,0,0,1-1.06-1v-3.52a1.06,1.06,0,1,1,2.11,0v3.52A1,1,0,0,1,121.24,132.41Z"/><path class="cls-2" d="M116,135.35a1.05,1.05,0,0,1-1-1.06v-6.45a1.06,1.06,0,1,1,2.11,0v6.45A1.05,1.05,0,0,1,116,135.35Z"/><path class="cls-2" d="M110.73,132.41a1,1,0,0,1-1-1v-3.52a1.06,1.06,0,1,1,2.11,0v3.52A1.05,1.05,0,0,1,110.73,132.41Z"/><path class="cls-2" d="M105.48,132.41a1.06,1.06,0,0,1-1.06-1v-3.52a1.06,1.06,0,1,1,2.11,0v3.52A1,1,0,0,1,105.48,132.41Z"/><path class="cls-2" d="M100.23,132.41a1.05,1.05,0,0,1-1.06-1v-3.52a1.06,1.06,0,1,1,2.11,0v3.52A1,1,0,0,1,100.23,132.41Z"/><g id="Layer_2-2" data-name="Layer 2"><g id="Layer_1-2-2" data-name="Layer 1-2"><rect class="cls-3" x="77.53" y="21.41" width="135.51" height="83.79"/><path class="cls-2" d="M213,106.2H77.53a1,1,0,0,1-1-1V21.41a1,1,0,0,1,1-1H213a1,1,0,0,1,1,1V105.2A1,1,0,0,1,213,106.2Zm-134.51-2H212V22.41H78.53Z"/><rect class="cls-4" x="82.43" y="26.52" width="125.71" height="70.14"/><path class="cls-2" d="M208.14,97.66H82.43a1,1,0,0,1-1-1V26.52a1,1,0,0,1,1-1H208.14a1,1,0,0,1,1,1V96.66A1,1,0,0,1,208.14,97.66Zm-124.71-2H207.14V27.52H83.43Z"/><path class="cls-3" d="M219.38,114.93H70.78c-8.32,0-8.32-9.73-8.32-9.73H228.12S229.37,114.93,219.38,114.93Z"/><path class="cls-2" d="M219.38,115.93H70.78c-7.37,0-9.32-7-9.32-10.73a1,1,0,0,1,1-1H228.12a1,1,0,0,1,1,.87c0,.19.57,4.76-2.23,7.94C225.18,115,222.66,115.93,219.38,115.93ZM63.52,106.2c.25,2.3,1.46,7.73,7.26,7.73h148.6c2.68,0,4.69-.75,6-2.24a8.45,8.45,0,0,0,1.79-5.49Z"/><path class="cls-3" d="M124,105.77v2.72a2.17,2.17,0,0,0,2.17,2.17h38.35a2.17,2.17,0,0,0,2.17-2.17v-2.72Z"/><path class="cls-2" d="M164.49,111.66H126.14a3.17,3.17,0,0,1-3.17-3.17v-3.72h44.69v3.72A3.17,3.17,0,0,1,164.49,111.66ZM125,106.77v1.72a1.17,1.17,0,0,0,1.17,1.17h38.35a1.19,1.19,0,0,0,1.17-1.17v-1.72Z"/><rect class="cls-3" x="89.11" y="10.83" width="111.99" height="71.77"/><path class="cls-2" d="M201.1,83.6H89.1a1,1,0,0,1-1-1V10.83a1,1,0,0,1,1-1h112a1,1,0,0,1,1,1V82.6A1,1,0,0,1,201.1,83.6Zm-111-2h110V11.83H90.1Z"/><rect class="cls-5" x="94.94" y="16.83" width="27.52" height="27.52"/><rect class="cls-6" x="129.1" y="16.83" width="65" height="27.52"/><rect class="cls-7" x="94.94" y="48.83" width="99.16" height="12.76"/><rect x="94.94" y="66.42" width="99.16" height="11.17"/><rect class="cls-3" x="89.11" y="1" width="111.99" height="9.83"/><path class="cls-2" d="M201.1,11.83H89.1a1,1,0,0,1-1-1V1a1,1,0,0,1,1-1h112a1,1,0,0,1,1,1v9.83A1,1,0,0,1,201.1,11.83Zm-111-2h110V2H90.1Z"/><path class="cls-5" d="M97.26,5.92a2.33,2.33,0,1,0-2.34,2.32h0A2.32,2.32,0,0,0,97.26,5.92Z"/><path class="cls-8" d="M113.35,5.92A2.33,2.33,0,1,0,111,8.24a2.33,2.33,0,0,0,2.35-2.32Z"/><path class="cls-9" d="M105.31,5.92A2.33,2.33,0,1,0,103,8.24h0A2.33,2.33,0,0,0,105.31,5.92Z"/><path class="cls-2" d="M194.1,6.92h-65a1,1,0,0,1,0-2h65a1,1,0,0,1,0,2Z"/><rect class="cls-3" x="1" y="44.19" width="51.95" height="69.98"/><path class="cls-2" d="M53,115.18H1a1,1,0,0,1-1-1v-70a1,1,0,0,1,1-1H53a1,1,0,0,1,1,1v70A1,1,0,0,1,53,115.18Zm-51-2H52v-68H2Z"/><rect class="cls-4" x="6.45" y="48.88" width="41.04" height="56.16"/><path class="cls-2" d="M47.49,106h-41a1,1,0,0,1-1-1V48.88a1,1,0,0,1,1-1h41a1,1,0,0,1,1,1V105A1,1,0,0,1,47.49,106Zm-40-2h39V49.88h-39Z"/><rect class="cls-3" x="11.74" y="30.43" width="31.17" height="61.67"/><path class="cls-2" d="M42.91,93.1H11.74a1,1,0,0,1-1-1V30.43a1,1,0,0,1,1-1H42.91a1,1,0,0,1,1,1V92.1A1,1,0,0,1,42.91,93.1Zm-30.17-2H41.91V31.43H12.74Z"/><rect class="cls-3" x="11.74" y="30.43" width="31.17" height="7.27"/><path class="cls-2" d="M42.91,38.71H11.74a1,1,0,0,1-1-1V30.43a1,1,0,0,1,1-1H42.91a1,1,0,0,1,1,1v7.28A1,1,0,0,1,42.91,38.71Zm-30.17-2H41.91V31.43H12.74Z"/><path class="cls-2" d="M36.19,35.26H17a1,1,0,0,1,0-2H36.19a1,1,0,0,1,0,2Z"/><rect class="cls-5" x="16.97" y="41.61" width="20.66" height="10.33"/><rect class="cls-6" x="16.97" y="56.7" width="20.66" height="10.33"/><rect class="cls-7" x="16.97" y="71.79" width="20.66" height="10.33"/><rect class="cls-3" x="236.21" y="68.41" width="33.85" height="45.6"/><path class="cls-2" d="M270.06,115H236.21a1,1,0,0,1-1-1V68.41a1,1,0,0,1,1-1h33.85a1,1,0,0,1,1,1V114A1,1,0,0,1,270.06,115Zm-32.85-2h31.85V69.41H237.21Z"/><rect class="cls-4" x="240.96" y="72.98" width="24.34" height="33.43"/><path class="cls-2" d="M265.3,107.4H241a1,1,0,0,1-1-1V73a1,1,0,0,1,1-1h24.3a1,1,0,0,1,1,1v33.4A1,1,0,0,1,265.3,107.4Zm-23.34-2H264.3V74H242Z"/><rect class="cls-3" x="241.01" y="53.3" width="24.25" height="47.98"/><path class="cls-2" d="M265.26,102.06H241a.78.78,0,0,1-.78-.78v-48a.78.78,0,0,1,.78-.77h24.25a.78.78,0,0,1,.78.77v48A.78.78,0,0,1,265.26,102.06Zm-23.47-1.56h22.69V54.08H241.79Z"/><rect class="cls-3" x="241.01" y="53.3" width="24.25" height="5.66"/><path class="cls-2" d="M265.26,59.74H241a.78.78,0,0,1-.78-.78V53.3a.78.78,0,0,1,.78-.77h24.25a.78.78,0,0,1,.78.77V59A.78.78,0,0,1,265.26,59.74Zm-23.47-1.55h22.69V54.08H241.79Z"/><path class="cls-2" d="M260,57.06H245.08a.78.78,0,0,1,0-1.56H260a.78.78,0,1,1,0,1.56Z"/><rect class="cls-5" x="245.08" y="62.57" width="16.07" height="18.04"/><rect class="cls-7" x="245.08" y="93.04" width="16.07" height="3.14"/><rect class="cls-6" x="245.08" y="85.44" width="16.07" height="3.14"/></g></g></g></g></svg>